<svg width="1440" height="460" viewBox="0 0 1440 460" fill="none" xmlns="http://www.w3.org/2000/svg">
<g clip-path="url(#clip0_85_2)">
<rect width="1440" height="460" fill="white" fill-opacity="0.05"/>
<path d="M244.044 -165.642C237.152 -163.954 228.431 -161.14 224.774 -159.593C200.439 -148.902 180.325 -127.801 179.763 -112.046C179.622 -108.951 179.059 -106.137 178.356 -105.715C177.653 -105.293 176.949 -102.761 176.527 -100.088C176.246 -97.4156 175.402 -92.6328 174.699 -89.3973C173.011 -81.801 174.699 -72.0945 178.075 -69.7031C179.481 -68.7184 182.013 -67.8743 183.842 -67.8743C185.67 -67.8743 188.202 -66.1863 190.171 -63.5135C197.345 -53.9477 219.85 -44.382 243.481 -41.1465C260.782 -38.7551 290.743 -39.0364 309.45 -41.7092C325.767 -44.1006 340.114 -49.4462 350.382 -56.7612L354.461 -59.5747V-55.6358C354.461 -47.8988 353.196 -45.7887 348.976 -46.4921C346.163 -46.9141 342.927 -45.3667 336.738 -41.2872C330.268 -36.7857 325.767 -34.9569 315.78 -32.8468C284.132 -26.2352 266.549 -26.2352 241.934 -32.8468C204.378 -42.9753 199.455 -44.1006 197.626 -42.5532C194.954 -40.3025 193.266 -41.7092 192.281 -46.3514C191.297 -51.4156 185.53 -59.9967 182.857 -60.4187C181.732 -60.7 179.903 -60.278 178.778 -59.5747C177.09 -58.4493 177.371 -56.3392 180.606 -46.6328C185.67 -31.4401 187.358 -28.3453 193.406 -22.9997C201.002 -16.3881 208.879 -11.7459 219.147 -7.80707C236.448 -1.33612 247.701 0.351956 274.286 0.211283C303.824 0.211283 314.092 -1.75814 333.363 -11.0425C354.461 -21.171 357.556 -25.2505 360.932 -47.3361C362.057 -55.7765 362.76 -64.2169 362.198 -66.0456C361.635 -68.7184 362.198 -70.5471 364.589 -73.0792C367.121 -75.752 367.824 -78.4248 368.246 -86.3025C368.809 -96.0089 368.809 -96.0089 363.745 -100.651C358.963 -105.012 358.822 -105.575 360.369 -109.795C361.916 -113.734 361.635 -115.14 358.259 -122.174C348.694 -141.587 322.954 -159.874 294.681 -167.049C281.881 -170.284 259.376 -169.721 244.044 -165.642ZM294.541 -154.951C310.716 -151.153 314.796 -149.043 328.58 -137.367C340.677 -127.098 344.193 -122.877 347.991 -114.437C350.382 -109.373 350.382 -108.81 348.132 -105.293C342.927 -97.275 325.204 -91.6481 293.978 -88.1312C265.846 -84.8958 244.888 -86.0211 224.07 -91.6481C200.439 -97.9783 192.703 -102.761 192.703 -110.78C192.703 -115.844 200.861 -130.333 206.488 -135.116C228.853 -154.247 263.736 -162.125 294.541 -154.951ZM341.802 -87.7092C322.25 -77.7214 292.993 -69.2811 278.083 -69.2811C266.971 -69.2811 230.681 -77.4401 214.365 -83.489C204.378 -87.2872 205.222 -88.4126 215.49 -84.7551C234.76 -78.0028 242.497 -77.0181 275.692 -77.0181H307.341L322.391 -82.223C330.69 -85.1771 339.974 -88.6939 342.787 -90.2413C345.741 -91.7887 349.116 -93.0548 350.242 -93.0548C351.367 -93.0548 347.569 -90.6633 341.802 -87.7092ZM338.989 -32.0028C338.989 -31.5808 333.222 -28.486 326.189 -24.8285C305.793 -14.7 278.787 -10.1985 255.015 -13.012C232.791 -15.6847 210.989 -23.1404 210.989 -27.9233C210.989 -29.33 211.833 -29.752 213.521 -29.33C214.787 -28.908 224.211 -26.9386 234.198 -24.8285C251.217 -21.4523 254.312 -21.171 279.209 -21.8743C306.215 -22.5777 317.468 -24.4065 330.549 -30.3147C335.613 -32.5655 338.989 -33.2688 338.989 -32.0028Z" fill="#F7F7F7"/>
<path d="M1131.46 10.1989C1109.52 15.8259 1094.33 24.6882 1079.42 40.8656C1067.75 53.3855 1064.93 59.5751 1064.37 75.0491C1064.09 81.9421 1063.1 88.9757 1062.26 90.6638C1060.01 94.6026 1060.15 107.685 1062.4 112.187C1063.24 114.156 1066.9 117.11 1070.42 118.939C1073.79 120.627 1078.72 124.144 1081.11 126.676C1090.25 135.96 1114.3 142.15 1149.89 143.979C1183.51 145.808 1225.85 137.086 1238.93 125.691L1243.85 121.471L1242.87 126.254C1240.9 135.96 1240.9 135.82 1235.27 135.116C1230.49 134.413 1229.5 134.835 1226.13 139.337C1223.03 143.416 1220.08 145.104 1208.97 148.762C1185.2 156.639 1165.64 158.749 1144.26 155.795C1129.78 153.685 1092.92 144.541 1087.02 141.587C1084.06 140.04 1080.83 138.915 1079.56 138.915C1078.15 138.915 1076.04 135.96 1073.93 131.318C1070.98 124.566 1068.45 122.034 1064.65 122.034C1061.42 122.034 1065.49 142.15 1070.98 152.841C1076.61 163.532 1096.3 175.63 1117.54 181.257C1148.48 189.275 1195.46 184.774 1222.75 171.129C1239.21 162.829 1246.1 151.434 1249.34 127.661C1250.74 117.954 1251.59 114.859 1253.42 114.297C1258.62 112.609 1258.34 97.4161 1253.13 88.835C1250.74 84.8962 1250.74 84.1928 1252.57 82.6454C1256.51 79.41 1255.1 70.1255 1248.91 57.3243C1241.32 41.4283 1224.86 24.8289 1209.53 17.5139C1187.45 6.82279 1155.66 3.86866 1131.46 10.1989ZM1194.34 23.2815C1213.47 30.5965 1226.97 42.835 1235.83 60.9818C1242.16 73.6424 1242.02 79.1286 1235.13 83.6301C1228.66 87.991 1225.42 87.8503 1224.86 83.0674C1224.3 77.5812 1220.92 77.1592 1220.92 82.5048C1220.92 86.0216 1220.22 87.0063 1217.13 87.7096C1214.87 88.1317 1210.37 89.3977 1206.86 90.5231C1195.6 94.0399 1167.33 96.994 1144.97 97.1347C1127.24 97.2754 1121.05 96.7127 1111.91 94.3213C1105.72 92.7739 1098.97 90.9451 1097 90.5231C1094.89 90.1011 1089.41 86.8656 1084.62 83.3488C1074.5 75.8931 1073.93 73.5017 1079.98 61.5445C1084.62 52.2601 1100.94 35.3794 1110.08 30.3151C1133.01 17.6546 1171.69 14.4191 1194.34 23.2815ZM1110.22 103.746C1130.76 108.67 1147.08 109.655 1168.6 107.263C1179.15 106.138 1191.95 104.168 1196.87 103.043C1207.28 100.511 1209.11 100.933 1201.65 104.168C1188.85 109.655 1162.97 114.156 1150.03 113.171C1131.04 111.624 1096.58 103.324 1090.81 98.8228C1088.28 96.994 1088.56 96.994 1093.35 98.8228C1096.3 100.089 1103.89 102.199 1110.22 103.746ZM1220.08 154.951C1217.83 160.859 1194.06 168.315 1167.33 171.41C1154.53 172.957 1149.89 172.817 1135.68 170.847C1115.85 168.174 1101.5 163.954 1096.16 159.312C1091.24 155.092 1092.64 154.951 1109.1 158.468C1130.62 163.251 1150.03 164.517 1171.55 162.829C1192.09 161.141 1209.67 158.046 1215.3 155.092C1219.94 152.7 1220.92 152.56 1220.08 154.951Z" fill="#F7F7F7"/>
<path d="M1180.13 28.9085C1180.13 32.144 1182.8 33.5507 1187.16 32.4254C1191.81 31.1593 1190.12 27.2205 1184.63 26.6578C1180.98 26.2358 1180.13 26.6578 1180.13 28.9085Z" fill="#F7F7F7"/>
<path d="M1124.57 33.5508C1124.01 34.3949 1123.87 35.3796 1124.29 35.8016C1125.27 36.7863 1128.09 34.9576 1128.09 33.2695C1128.09 31.5814 1125.7 31.5814 1124.57 33.5508Z" fill="#F7F7F7"/>
<path d="M1163.67 34.3947C1162.69 34.6761 1161.85 37.2082 1161.85 39.8809C1161.85 44.2418 1162.27 44.6638 1165.78 44.6638C1169.72 44.6638 1169.86 44.3825 1169.02 39.4589C1168.18 34.254 1166.91 32.988 1163.67 34.3947Z" fill="#F7F7F7"/>
<path d="M1138.78 38.6149C1137.09 40.303 1137.93 44.6638 1140.04 44.6638C1141.17 44.6638 1142.15 44.3825 1142.15 44.1011C1142.15 43.8198 1142.58 42.5537 1143 41.4283C1143.7 39.3183 1140.33 37.0675 1138.78 38.6149Z" fill="#F7F7F7"/>
<path d="M1189.98 43.8198C1189.98 46.3519 1194.2 48.04 1196.03 46.2113C1196.73 45.5079 1196.87 44.2419 1196.45 43.3978C1195.04 41.147 1189.98 41.5691 1189.98 43.8198Z" fill="#F7F7F7"/>
<path d="M1209.95 44.9451C1206.58 48.3213 1208.26 51.2754 1215.44 55.0736C1219.52 57.1837 1223.03 58.4497 1223.31 58.1684C1225 56.4803 1220.5 47.7586 1216.84 45.6485C1211.92 42.835 1212.06 42.835 1209.95 44.9451Z" fill="#F7F7F7"/>
<path d="M1112.62 47.4774C1112.62 48.1808 1111.63 48.8841 1110.51 48.8841C1108.11 48.8841 1107.69 51.1349 1109.94 52.5416C1110.79 53.1043 1111.07 55.3551 1110.51 58.1685C1109.94 61.6854 1110.22 62.9514 1111.63 62.9514C1115.01 62.9514 1116.83 59.9973 1115.29 56.9025C1114.44 55.3551 1114.16 52.401 1114.58 50.1502C1115.01 47.8994 1114.73 46.0707 1114.02 46.0707C1113.18 46.0707 1112.62 46.6334 1112.62 47.4774Z" fill="#F7F7F7"/>
<path d="M1150.59 60.8411C1150.59 63.0919 1151.44 64.3579 1152.7 64.3579C1153.97 64.3579 1154.81 63.0919 1154.81 60.8411C1154.81 58.5903 1153.97 57.3243 1152.7 57.3243C1151.44 57.3243 1150.59 58.5903 1150.59 60.8411Z" fill="#F7F7F7"/>
<path d="M1175.49 58.3092C1173.52 60.138 1174.65 62.9514 1177.32 62.9514C1179.15 62.9514 1180.13 61.9667 1180.13 60.138C1180.13 57.4652 1177.32 56.3398 1175.49 58.3092Z" fill="#F7F7F7"/>
<path d="M1137.51 59.7157C1135.54 61.5445 1136.67 64.3579 1139.34 64.3579C1142.44 64.3579 1142.58 64.2172 1141.31 60.9818C1140.33 58.5903 1139.06 58.1683 1137.51 59.7157Z" fill="#F7F7F7"/>
<path d="M1195.89 61.1226C1196.17 62.5293 1197.85 63.7954 1199.54 64.0767C1202.22 64.4988 1202.78 63.9361 1202.36 61.9666C1202.07 60.5599 1200.39 59.2939 1198.7 59.0125C1196.03 58.5905 1195.46 59.1532 1195.89 61.1226Z" fill="#F7F7F7"/>
<path d="M1121.06 64.2173C1121.06 65.9053 1121.9 67.1714 1123.31 67.1714C1124.57 67.1714 1125.27 66.1867 1124.99 64.7799C1124.29 61.2631 1121.06 60.8411 1121.06 64.2173Z" fill="#F7F7F7"/>
<path d="M1168.88 76.034C1168.88 79.5508 1173.38 84.193 1176.33 83.771C1181.26 83.0676 1180.55 80.2542 1174.51 77.1594C1170.57 75.19 1168.88 74.768 1168.88 76.034Z" fill="#F7F7F7"/>
<path d="M1096.44 78.8473C1095.03 84.4742 1096.44 86.725 1098.55 82.2235C1099.96 79.41 1100.1 78.0033 1098.83 76.7372C1097.71 75.6119 1097 76.1745 1096.44 78.8473Z" fill="#F7F7F7"/>
<path d="M1195.6 78.4253C1195.6 80.9575 1198.42 85.459 1199.82 85.459C1202.36 85.459 1201.23 79.9727 1198.42 78.4253C1196.45 77.3 1195.6 77.3 1195.6 78.4253Z" fill="#F7F7F7"/>
<path d="M1119.65 83.9117C1119.65 86.8659 1123.31 88.976 1124.71 86.7252C1125.56 85.1778 1122.88 81.2389 1120.91 81.2389C1120.21 81.2389 1119.65 82.505 1119.65 83.9117Z" fill="#F7F7F7"/>
<path d="M24.8967 11.6058C19.6923 12.7311 11.956 15.1226 7.73622 17.092L-3.95786e-05 20.6088V27.7831V34.8168L8.01754 29.6119L15.8945 24.2663L43.323 23.8443C68.6417 23.4223 71.4549 23.5629 80.5978 26.5171C90.0219 29.4712 102.822 37.6302 109.292 44.8045C117.872 54.3703 129.125 79.5507 127.297 85.459C126.734 87.2877 115.622 93.8993 112.949 93.8993C112.527 93.8993 112.527 91.3672 112.949 88.2724C113.371 85.1776 113.09 82.2235 112.246 81.8015C109.996 80.3948 109.152 82.5049 109.574 89.6792C109.855 95.5874 109.433 96.8535 106.338 98.8229C104.51 100.089 99.1648 101.636 94.6637 102.34C90.1626 102.902 81.723 104.45 75.956 105.575C70.189 106.841 55.4197 108.529 43.1824 109.514C23.7714 111.061 19.6923 111.061 10.5494 109.092L-3.95786e-05 106.982V112.327C-3.95786e-05 115.422 0.421938 117.814 1.12524 117.814C1.68787 117.814 8.1582 118.517 15.4725 119.22C24.334 120.205 35.4461 120.205 48.6681 119.22C79.6132 117.11 99.1648 112.187 114.497 103.043C125.468 96.2908 126.453 97.8382 115.481 104.872C99.0241 115.563 70.7516 124.285 48.5274 125.691C37.2747 126.535 20.2549 125.269 5.20436 122.597L-3.95786e-05 121.612V137.227C-3.95786e-05 155.373 -1.96927 153.545 20.3956 155.936C49.6527 159.031 97.6176 153.263 114.215 144.682L122.374 140.462V149.043C122.374 156.499 122.092 157.343 119.982 156.499C114.497 154.107 109.855 154.248 104.651 156.921C95.9296 161.282 76.378 166.627 62.1714 168.597C46.4175 170.566 32.3516 169.581 13.6439 165.08L-3.95786e-05 161.704V167.19C-3.95786e-05 173.239 -0.422017 172.957 15.4725 175.63C37.4153 179.428 71.0329 176.896 92.6945 169.722C103.807 166.205 107.464 166.487 102.822 170.707C96.0703 177.037 57.811 186.743 39.6659 186.743C34.1802 186.743 23.6307 185.477 15.8945 183.93C8.29886 182.383 1.54721 181.116 0.984576 181.116C0.421938 181.116 -3.95702e-05 184.071 0.281279 187.728C0.703257 194.199 0.843916 194.34 6.75161 196.168C18.567 199.545 45.011 201.233 59.9208 199.404C78.9099 197.294 98.7428 191.808 109.714 185.899C125.749 177.037 127.578 174.083 130.251 153.123C131.235 144.401 132.782 138.071 133.908 137.367C134.892 136.664 135.455 134.272 135.314 131.178C134.892 127.801 135.455 125.973 137.002 125.41C139.534 124.425 142.207 115.844 141.081 112.468C140.519 111.202 138.971 108.248 137.424 106.138C134.752 102.34 134.752 101.777 137.002 97.2755C144.035 82.3642 133.767 51.5568 115.903 33.9727C105.635 23.985 91.4285 16.3886 75.3934 12.3091C62.3121 8.93298 39.8066 8.65163 24.8967 11.6058Z" fill="#F7F7F7"/>
<path d="M682.338 18.0767C661.802 22.4375 649.987 29.4712 635.499 45.6485C626.075 56.199 620.167 67.7342 617.494 80.2541C615.666 89.5385 616.65 94.3213 622.558 101.918C625.934 106.419 625.934 106.56 623.121 106.56C618.198 106.56 610.743 110.358 608.211 114.297C603.991 120.768 606.242 133.428 613.415 142.994C615.807 146.37 615.947 147.496 614.541 155.092C612.431 166.346 613.697 174.927 618.76 185.055C625.371 198.138 635.639 205.453 655.472 211.08C691.481 221.49 734.804 218.676 762.514 204.187C773.345 198.419 776.721 194.902 783.472 181.538C787.13 173.942 787.692 171.691 786.989 166.486L786.004 160.156L793.178 156.639C799.648 153.263 801.196 151.153 800.492 146.792C800.352 146.089 801.055 144.542 802.18 143.275C804.712 140.321 808.791 129.771 808.791 126.254C808.791 117.673 801.196 112.187 789.24 112.187C781.081 112.187 780.237 110.639 786.286 106.982C797.679 100.37 799.226 81.5201 789.943 62.1073C786.004 53.8076 782.347 48.7433 774.611 41.2877C759.138 26.095 745.072 19.6241 720.176 16.67C704.141 14.5599 697.811 14.8412 682.338 18.0767ZM728.334 29.8932C742.541 32.566 748.167 34.9574 758.857 42.5537C767.437 48.7433 773.064 55.9177 779.815 69.2816C786.286 82.3641 786.286 82.7862 776.158 87.8504C770.813 90.5232 763.921 92.6333 758.576 93.1959L749.996 94.1807L750.699 87.7097C751.261 83.6302 750.839 80.5354 749.714 79.1287C746.901 75.6118 745.494 78.144 745.494 86.8657V95.0247L733.96 95.8687C697.952 98.2602 676.571 98.4008 669.257 96.2907C665.178 95.0247 657.301 93.7586 651.675 93.3366C643.516 92.7739 632.826 89.3978 629.029 86.1623C627.622 84.8963 633.811 65.0614 636.905 60.8412C649.846 42.9758 661.802 34.5354 680.229 30.0339C691.341 27.3611 714.409 27.3611 728.334 29.8932ZM635.218 94.6027C638.031 96.4314 642.532 98.4008 645.486 98.9635C654.629 100.37 654.91 101.355 646.33 102.48C637.046 103.606 634.514 102.34 630.716 95.0247C628.185 90.2418 628.607 90.1011 635.218 94.6027ZM787.692 92.4926C787.692 94.1807 781.785 95.7281 778.268 95.0247C776.44 94.462 777.143 93.8993 780.659 92.9146C787.13 90.8045 787.692 90.8045 787.692 92.4926ZM768.703 105.434C765.609 106.982 760.264 110.077 756.747 112.187C747.464 118.095 735.789 119.783 706.813 119.642C682.76 119.502 680.932 119.361 668.976 115.422L656.316 111.202L660.958 109.655C666.163 107.826 686.839 107.685 706.11 109.233L718.066 110.217L709.626 112.046C704.281 113.171 696.545 113.734 688.809 113.171C682.057 112.89 676.712 112.749 677.134 113.171C677.415 113.453 685.011 115 694.013 116.407C707.094 118.517 712.439 118.798 721.16 117.814C731.147 116.548 739.868 114.719 745.494 112.609C749.011 111.343 740.009 108.107 732.132 107.826L725.099 107.545L732.835 106.56C737.055 105.856 745.354 105.294 751.121 105.153C756.888 105.012 763.64 104.309 765.89 103.746C773.486 101.777 774.47 102.34 768.703 105.434ZM624.527 118.376C624.527 124.285 648.439 135.679 670.945 140.462C683.745 143.275 689.793 143.697 715.253 143.697C744.088 143.697 745.213 143.557 761.67 139.196C770.954 136.664 781.925 132.725 785.864 130.474C789.943 128.083 793.881 126.254 794.585 126.254C796.694 126.254 797.82 133.428 795.991 135.679C793.741 138.211 777.987 146.23 769.407 149.184C757.591 153.123 729.741 157.483 716.659 157.343C686.839 157.202 636.061 143.979 621.292 132.725C613.978 127.239 613.134 123.441 618.338 119.361C622.699 115.844 624.527 115.563 624.527 118.376ZM789.24 150.309C787.411 151.856 785.442 152.701 785.02 152.279C784.598 151.716 785.723 150.168 787.692 148.762C792.193 145.386 793.6 146.792 789.24 150.309ZM632.264 151.434C645.908 156.639 669.116 161.282 689.231 162.97C715.956 165.08 753.512 163.392 770.25 159.171C772.923 158.468 773.626 158.89 773.626 161C773.626 165.08 768.844 166.627 746.62 170.003C730.163 172.395 722.708 172.817 706.11 172.113C684.589 171.269 676.149 169.863 649.987 162.548C637.187 159.031 632.826 157.202 628.888 153.545C626.075 150.872 624.105 148.762 624.527 148.762C624.949 148.762 628.466 150.028 632.264 151.434ZM637.327 169.019C652.8 177.178 662.365 180.272 683.745 183.789C711.596 188.431 733.82 187.165 760.686 179.71C774.611 175.771 776.721 177.318 769.829 186.181C763.64 194.34 753.371 198.56 727.49 203.624C703.297 208.407 676.431 206.578 653.081 198.841C638.171 193.918 631.56 188.15 626.778 176.193C622.98 166.627 622.277 162.829 624.387 162.829C625.09 162.829 630.857 165.642 637.327 169.019Z" fill="#F7F7F7"/>
<path d="M680.791 33.5507C680.791 34.3947 678.963 37.4895 676.572 40.4437C671.648 46.6333 671.226 48.884 675.165 48.884C677.275 48.884 677.978 47.8993 677.978 45.3672C677.978 41.0064 681.635 39.0369 689.794 39.0369C699.921 39.0369 697.389 34.8168 686.136 32.8473C682.479 32.144 680.791 32.4253 680.791 33.5507Z" fill="#F7F7F7"/>
<path d="M723.974 34.3946C721.864 36.364 723.27 37.4894 730.585 39.5994C740.009 42.4129 741.275 42.4129 741.275 39.8808C741.275 36.0826 737.055 33.4098 730.866 33.4098C727.631 33.4098 724.396 33.8319 723.974 34.3946Z" fill="#F7F7F7"/>
<path d="M651.956 48.884C649.565 51.5568 649.565 51.6975 653.363 53.1042C655.613 53.9482 658.286 54.2296 659.411 53.8076C661.099 53.1042 661.099 52.6822 659.411 50.0094C656.598 45.7892 655.05 45.5079 651.956 48.884Z" fill="#F7F7F7"/>
<path d="M759.279 49.0248C755.622 51.1349 756.185 54.3704 760.686 56.0585C762.796 56.7618 765.89 59.1533 767.578 61.2634L770.813 65.0615V61.1227C770.813 56.1991 767.437 49.4468 764.484 48.3215C761.67 47.3368 762.233 47.1961 759.279 49.0248Z" fill="#F7F7F7"/>
<path d="M716.519 53.6668C715.253 57.1836 716.519 60.8411 719.332 61.2631C723.552 62.1071 725.24 59.2937 722.989 55.2142C720.879 51.2753 717.644 50.572 716.519 53.6668Z" fill="#F7F7F7"/>
<path d="M739.024 54.7923C737.899 56.4804 742.4 60.4192 744.791 59.7159C745.494 59.4345 746.338 57.8871 746.62 56.199C747.042 53.6669 746.338 53.1042 743.525 53.1042C741.556 53.1042 739.587 53.8076 739.024 54.7923Z" fill="#F7F7F7"/>
<path d="M694.154 55.9176C692.466 58.5903 696.264 67.1714 699.218 67.1714C701.468 67.1714 701.89 66.1867 701.89 60.8411C701.89 55.0735 701.609 54.5108 698.514 54.5108C696.545 54.5108 694.576 55.2142 694.154 55.9176Z" fill="#F7F7F7"/>
<path d="M673.055 58.731C671.93 60.4191 676.009 67.1714 677.978 67.1714C679.525 67.1714 679.806 62.9512 678.54 59.5751C677.556 57.0429 674.321 56.6209 673.055 58.731Z" fill="#F7F7F7"/>
<path d="M661.38 66.4683C659.552 70.5478 661.24 72.2359 665.319 69.9851C668.554 68.297 668.835 67.031 666.444 64.6396C664.053 62.2481 663.209 62.5295 661.38 66.4683Z" fill="#F7F7F7"/>
<path d="M749.714 66.468C749.714 69.0002 750.418 69.9849 752.528 69.9849C756.044 69.9849 757.873 65.9054 755.2 64.2173C751.684 62.1072 749.714 62.8106 749.714 66.468Z" fill="#F7F7F7"/>
<path d="M639.578 65.202C637.187 67.7341 638.734 70.1255 642.532 69.7035C644.782 69.4222 646.33 68.4375 646.33 67.1714C646.33 64.9207 641.266 63.5139 639.578 65.202Z" fill="#F7F7F7"/>
<path d="M731.71 68.8596C728.475 72.095 729.741 74.3458 734.664 73.9238C738.039 73.6424 739.165 72.7984 739.165 70.6883C739.165 67.4528 734.382 66.1868 731.71 68.8596Z" fill="#F7F7F7"/>
<path d="M651.534 80.1134C648.721 82.9268 649.565 85.7403 653.081 85.1776C655.05 84.8962 656.316 83.6302 656.598 81.5201C657.16 78.1439 654.347 77.2999 651.534 80.1134Z" fill="#F7F7F7"/>
<path d="M671.226 84.8964C669.82 89.8199 669.82 89.8199 673.477 89.3979C679.244 88.6945 679.384 79.9728 673.617 79.8321C673.195 79.8321 672.07 82.0829 671.226 84.8964Z" fill="#F7F7F7"/>
<path d="M702.734 81.9422C699.921 84.7556 701.327 88.2725 705.407 88.2725C708.501 88.2725 710.33 85.881 710.33 81.8015C710.33 79.1287 705.407 79.2694 702.734 81.9422Z" fill="#F7F7F7"/>
<path d="M721.02 83.9116C719.613 86.0217 725.38 89.9605 728.475 88.9758C732.132 87.8505 732.272 86.0217 728.756 84.0523C725.38 82.3642 722.004 82.2235 721.02 83.9116Z" fill="#F7F7F7"/>
<path d="M763.077 84.1929C762.514 85.0369 762.936 86.303 763.921 87.0064C766.875 88.8351 768.281 88.5538 767.719 85.881C767.156 83.0675 764.343 81.9421 763.077 84.1929Z" fill="#F7F7F7"/>
<path d="M1358.49 24.9698C1330.36 29.7526 1301.94 47.3367 1293.36 65.4835C1288.86 74.6273 1287.31 85.037 1289.71 89.5386C1291.11 92.0707 1290.97 92.6334 1288.86 93.4774C1284.64 95.0248 1284.22 96.7129 1284.22 112.187C1284.22 126.958 1285.2 130.474 1289.28 130.474C1290.27 130.474 1296.04 135.539 1302.08 141.587C1311.65 151.294 1314.18 152.982 1321.49 155.092C1351.03 163.532 1402.37 165.08 1433.18 158.468L1440.35 156.921V138.071C1440.35 127.661 1440.07 119.221 1439.79 119.221C1439.51 119.221 1433.32 121.471 1426.14 124.144C1412.22 129.349 1393.37 133.288 1382.68 133.288C1379.16 133.288 1371.57 132.303 1365.8 131.318C1360.04 130.193 1349.63 128.224 1342.59 126.958C1335.7 125.691 1329.65 124.285 1329.23 124.003C1328.81 123.581 1334.29 123.722 1341.19 124.425C1360.32 126.113 1410.39 125.691 1417.85 123.581C1421.36 122.737 1427.83 120.627 1432.33 118.939C1439.65 116.266 1440.35 115.704 1440.35 111.906C1440.35 107.967 1440.07 107.685 1436.55 108.529C1416.86 113.031 1408.42 113.875 1378.46 113.875C1349.63 114.016 1345.69 113.734 1334.86 110.78C1320.09 106.841 1309.68 102.199 1306.3 98.401C1303.49 95.3062 1299.27 77.5814 1300.68 75.19C1301.94 73.0799 1305.18 69.0003 1310.94 62.5294C1322.9 48.7435 1340.2 40.5844 1362.99 37.771C1380.99 35.5202 1390.56 35.9422 1404.48 39.5997C1420.8 43.9606 1425.86 46.2114 1433.88 52.401L1440.35 57.3245V48.3215V39.3184L1434.44 36.3643C1411.66 25.3918 1382.26 21.0309 1358.49 24.9698Z" fill="#F7F7F7"/>
<path d="M58.3736 27.6426C56.967 30.034 63.7186 33.4102 69.767 33.4102C76.7999 33.4102 78.0659 32.2848 74.9714 28.9086C72.5801 26.2358 59.9208 25.2511 58.3736 27.6426Z" fill="#F7F7F7"/>
<path d="M18.0044 29.3304C15.4725 30.7372 14.6285 35.52 16.5978 36.7861C18.8483 38.0521 28.1318 34.1133 28.1318 31.8625C28.1318 28.0644 22.5055 26.6576 18.0044 29.3304Z" fill="#F7F7F7"/>
<path d="M489.494 32.9882C453.767 38.6151 424.651 55.4958 414.804 76.3154C410.303 85.7405 409.741 91.6487 412.694 98.6824L414.664 103.465L407.912 106.56C404.114 108.389 399.051 111.906 396.519 114.438C391.455 119.643 391.455 120.205 393.565 139.618C394.831 151.716 395.815 154.107 403.27 164.799L408.193 171.692L407.349 183.789C406.083 199.967 408.053 208.829 414.945 217.551C421.556 225.851 432.387 234.01 441.811 237.526C465.864 246.67 519.314 243.013 545.055 230.352C558.558 223.74 566.013 216.848 570.936 206.438C574.031 199.967 574.593 196.731 574.593 186.04C574.593 179.007 574.171 171.129 573.468 168.315C572.483 163.673 572.765 163.111 577.688 159.875C580.501 158.046 584.721 154.107 587.112 151.013C591.191 145.948 591.472 144.964 591.332 134.132C591.191 120.909 588.519 113.453 582.752 109.936C580.642 108.529 578.532 107.263 578.251 107.123C577.969 106.841 579.094 103.887 580.782 100.37C583.596 94.8842 583.736 93.3368 582.33 87.9912C577.266 69.5631 559.543 50.4316 537.741 40.1625C524.659 33.9729 503.279 30.7374 489.494 32.9882ZM516.22 47.4775C531.974 49.3062 543.367 54.7925 554.76 66.3276C563.481 74.9087 571.077 88.1319 571.077 94.4622C571.077 97.4163 570.092 97.8383 559.683 99.3857C553.354 100.37 542.382 103.043 535.349 105.435C503.56 115.844 484.712 115.985 445.89 105.857C428.448 101.355 425.354 99.6671 424.088 93.8995C422.4 86.4438 424.651 81.8016 435.2 70.4071C444.343 60.56 446.875 58.872 457.283 54.5111C477.398 46.2114 491.182 44.5233 516.22 47.4775ZM414.804 122.456C417.758 129.208 420.29 130.615 439.982 135.961C465.16 142.854 492.308 143.135 522.971 136.805C539.007 133.429 568.686 123.581 571.64 120.627C573.89 118.377 580.923 118.939 580.923 121.331C580.923 126.958 565.732 136.101 546.18 142.291C508.483 154.107 491.042 155.796 460.659 150.309C433.512 145.386 419.024 140.462 408.334 132.303C402.989 128.364 402.286 123.441 406.505 119.221C410.585 115.141 411.851 115.704 414.804 122.456ZM576.703 145.808C573.187 150.872 569.53 154.389 567.842 154.67C565.872 154.951 564.466 156.64 563.481 159.594C562.075 164.939 562.919 164.517 539.429 168.737C513.829 173.098 476.554 173.239 451.516 168.737C423.947 163.814 418.04 161.844 411.147 154.811C407.771 151.575 405.099 147.918 405.099 146.652C405.099 144.682 405.661 144.682 409.741 146.792C417.055 150.731 452.079 158.328 470.083 160.156C488.651 161.844 507.78 160.578 535.912 155.796C552.651 152.841 560.668 149.887 573.749 142.01C577.969 139.618 581.767 137.508 582.048 137.508C582.33 137.508 579.938 141.306 576.703 145.808ZM560.668 181.398C561.934 183.93 563.059 189.557 563.2 193.918C563.341 200.389 562.637 202.499 559.402 206.86C548.29 221.349 512.985 231.759 481.196 229.789C441.952 227.539 422.4 216.285 415.648 192.37C414.242 187.447 417.055 190.26 421.978 198.701C427.042 207.282 439.842 216.707 451.376 220.364C479.367 229.227 521.846 227.117 544.352 215.863C551.244 212.487 554.198 208.126 548.431 209.814C542.523 211.502 493.292 217.692 485.134 217.692C468.255 217.692 446.171 211.502 437.872 204.328C431.824 199.123 420.571 179.429 423.244 178.585C423.947 178.303 432.105 179.569 441.248 181.117C472.193 186.884 519.033 186.181 545.758 179.71C551.525 178.303 556.73 177.178 557.292 177.037C557.855 176.896 559.402 179.007 560.668 181.398Z" fill="#F7F7F7"/>
<path d="M489.494 56.621C489.494 60.9819 489.916 61.5446 494.277 62.3886C496.949 62.8107 499.763 62.8107 500.606 62.248C504.826 59.7159 499.059 51.6975 493.011 51.6975C489.916 51.6975 489.494 52.2602 489.494 56.621Z" fill="#F7F7F7"/>
<path d="M517.204 52.5414C516.642 53.1041 516.22 55.3548 516.22 57.6056C516.22 60.5597 516.923 61.5444 519.033 61.5444C520.58 61.5444 522.268 60.5597 522.831 59.2937C524.237 55.4955 519.736 50.1499 517.204 52.5414Z" fill="#F7F7F7"/>
<path d="M471.912 56.0583C471.35 56.9023 471.35 57.887 471.771 58.309C472.897 59.4344 476.835 57.6057 476.835 55.9176C476.835 54.0889 473.037 54.0889 471.912 56.0583Z" fill="#F7F7F7"/>
<path d="M525.222 65.0613C523.956 68.0155 525.644 71.3916 528.176 71.3916C531.13 71.3916 532.396 67.5934 530.286 65.0613C528.035 62.3885 526.207 62.3885 525.222 65.0613Z" fill="#F7F7F7"/>
<path d="M446.734 69.4222C445.046 73.7831 445.89 77.0186 448.703 77.0186C451.938 77.0186 454.752 72.517 453.486 69.4222C452.36 66.4681 447.859 66.4681 446.734 69.4222Z" fill="#F7F7F7"/>
<path d="M469.802 70.5476C469.802 73.9238 473.037 76.3152 475.569 74.7678C477.679 73.5017 476.976 69.0002 474.585 68.0155C470.787 66.6088 469.802 67.0308 469.802 70.5476Z" fill="#F7F7F7"/>
<path d="M543.789 69.4223C541.398 75.7526 547.446 82.6456 552.791 79.8321C556.589 77.8627 556.308 75.6119 552.088 70.9697C548.009 66.7495 545.055 66.0462 543.789 69.4223Z" fill="#F7F7F7"/>
<path d="M505.811 72.6576C503.42 76.4558 512 83.2081 515.095 80.1133C516.361 78.8472 515.939 77.5812 513.407 74.9084C510.031 71.2509 507.077 70.4068 505.811 72.6576Z" fill="#F7F7F7"/>
<path d="M487.807 78.0032C484.571 78.8472 484.571 82.2234 487.807 83.9114C491.042 85.5995 494.136 83.7708 493.433 80.5353C493.011 77.7218 491.464 77.0185 487.807 78.0032Z" fill="#F7F7F7"/>
<path d="M532.255 79.1287C531.13 81.9422 532.818 84.0522 536.053 84.0522C538.866 84.0522 539.288 82.9269 537.881 79.2694C536.756 76.4559 533.24 76.3152 532.255 79.1287Z" fill="#F7F7F7"/>
<path d="M460.237 89.8199C460.378 91.5079 461.503 93.196 462.488 93.618C463.754 94.0401 464.317 93.196 463.895 90.9453C463.754 89.2572 462.629 87.5691 461.644 87.1471C460.378 86.7251 459.815 87.5691 460.237 89.8199Z" fill="#F7F7F7"/>
<path d="M438.154 92.9147C437.591 94.3214 437.732 96.1502 438.716 97.1349C440.967 99.3856 442.374 97.1349 440.686 93.6181C439.279 90.6639 439.138 90.5233 438.154 92.9147Z" fill="#F7F7F7"/>
<path d="M522.831 92.0706C520.58 94.1807 521.987 98.1196 525.222 98.9636C529.723 100.089 531.692 98.6823 531.692 94.4621C531.692 91.6486 530.989 91.0859 527.754 91.0859C525.503 91.0859 523.253 91.5079 522.831 92.0706Z" fill="#F7F7F7"/>
<path d="M497.653 96.8534C491.464 100.37 498.356 105.153 505.53 102.34C510.171 100.652 510.171 98.9635 505.67 96.9941C501.31 95.0246 500.747 95.0246 497.653 96.8534Z" fill="#F7F7F7"/>
<path d="M474.444 100.23C473.459 103.043 476.132 105.153 480.774 105.153C483.446 105.153 484.009 104.45 483.587 101.918C483.024 97.979 475.85 96.5723 474.444 100.23Z" fill="#F7F7F7"/>
<path d="M546.884 185.337C544.774 185.899 533.802 187.587 522.268 188.853C498.215 191.808 461.644 191.104 445.327 187.447C434.778 185.196 433.231 185.477 436.044 188.853C439.138 192.511 444.906 194.902 458.127 198.278C475.71 202.499 509.468 202.639 529.582 198.278C552.932 193.355 556.308 192.089 556.308 188.15C556.308 184.211 553.213 183.367 546.884 185.337Z" fill="#F7F7F7"/>
<path d="M86.2241 39.7403C90.4439 43.3978 94.2417 44.3825 94.2417 41.7097C94.2417 39.1776 89.7406 36.3641 85.8021 36.3641H82.2856L86.2241 39.7403Z" fill="#F7F7F7"/>
<path d="M921.741 38.193C900.782 42.2725 884.888 48.7434 872.65 58.4498C851.13 75.4713 841.002 92.9147 847.613 101.636C849.582 104.168 849.442 104.45 845.081 105.997C839.596 107.826 838.47 111.624 838.47 130.052L838.33 141.728H843.253C847.332 141.728 848.598 142.572 852.255 147.918C863.226 163.954 888.686 171.973 932.571 173.52C969.705 174.927 1005.01 167.612 1020.2 155.514L1025.55 151.294L1024.7 156.78C1022.87 168.456 1022.87 168.456 1018.09 168.456C1015.7 168.456 1009.23 170.566 1003.74 173.239C990.945 179.288 965.064 185.477 948.325 186.462C933.837 187.165 920.475 185.477 899.516 179.991C890.655 177.74 881.371 176.334 874.62 176.334C864.352 176.193 863.648 176.052 862.382 172.676C860.554 167.753 846.347 152.982 843.393 152.982C837.908 152.982 844.941 176.756 853.38 186.743C860.132 194.621 876.87 205.453 887.982 209.11C923.71 221.068 970.409 219.38 1001.07 205.031C1015.28 198.419 1023.86 190.12 1027.94 179.569C1030.89 171.41 1034.55 145.808 1033.28 142.291C1032.86 141.025 1033.42 138.352 1034.55 136.101C1035.82 133.569 1036.66 128.224 1036.66 122.175C1036.66 113.172 1036.38 112.187 1032.86 109.655C1029.63 107.263 1029.2 106.419 1030.75 105.013C1037.08 98.5416 1023.3 72.2358 1006.84 59.0125C997.556 51.6976 981.943 43.6792 970.549 40.5844C956.905 36.6456 934.963 35.6609 921.741 38.193ZM966.892 51.6976C992.633 58.1685 1013.17 75.6119 1018.37 95.0248C1021.61 107.404 1012.89 115.563 991.367 119.783C974.628 123.159 955.217 124.847 932.009 124.847C911.613 124.847 908.941 124.566 890.936 119.924C880.387 117.251 869.556 113.594 866.883 112.046C861.96 108.951 858.022 102.902 858.022 98.5416C858.163 89.8199 871.244 73.3612 885.169 64.2174C893.609 58.7312 910.91 52.2602 922.444 50.2908C935.385 48.1807 955.499 48.7434 966.892 51.6976ZM877.574 125.551C894.453 132.584 910.769 134.976 940.308 135.117C964.782 135.117 968.158 134.835 980.396 131.459C987.85 129.49 995.587 127.098 997.697 126.395C1003.74 124.003 1002.06 125.832 994.883 129.63C975.613 139.337 946.356 146.089 935.807 143.276C932.853 142.431 924.132 140.462 916.396 138.774C898.532 134.976 878.839 128.646 870.681 124.003C863.508 119.924 864.774 120.205 877.574 125.551ZM1004.87 183.086C1004.45 184.071 998.259 187.869 991.226 191.386C961.969 205.875 915.552 206.86 886.576 193.777C881.793 191.526 877.714 189.276 877.714 188.713C877.714 187.447 892.624 188.854 907.253 191.667C921.319 194.34 954.655 194.762 968.017 192.37C977.02 190.823 997.697 184.633 1001.49 182.383C1004.59 180.694 1005.71 180.835 1004.87 183.086Z" fill="#F7F7F7"/>
<path d="M938.76 55.2144C937.495 58.3092 939.323 60.1379 943.965 60.1379C949.169 60.1379 949.451 56.3398 944.387 54.511C939.745 52.6823 939.604 52.6823 938.76 55.2144Z" fill="#F7F7F7"/>
<path d="M906.409 63.6547C905.846 64.7801 905.987 67.3122 906.409 69.2816C907.956 75.4712 915.692 72.9391 915.692 66.3275C915.692 61.6853 907.956 59.4346 906.409 63.6547Z" fill="#F7F7F7"/>
<path d="M959.297 65.7647C959.297 69.1409 962.813 74.2051 965.204 74.2051C968.018 74.2051 968.439 71.2509 966.33 67.0308C964.782 64.358 959.297 63.2326 959.297 65.7647Z" fill="#F7F7F7"/>
<path d="M930.321 72.095C929.055 75.3305 930.743 78.4253 933.978 78.4253C937.494 78.4253 939.182 74.9085 936.791 72.095C934.541 69.4222 931.305 69.4222 930.321 72.095Z" fill="#F7F7F7"/>
<path d="M985.6 72.3764C983.631 74.2051 984.756 78.2846 987.71 80.3947C992.211 83.4895 995.868 83.2082 995.868 79.832C995.868 74.7678 988.413 69.4222 985.6 72.3764Z" fill="#F7F7F7"/>
<path d="M884.747 79.1286C884.747 85.3182 889.108 90.2417 893.609 88.835C898.813 87.2876 899.517 85.5995 895.719 84.1928C893.328 83.3488 891.78 81.3793 891.077 78.5659C890.374 75.4711 889.248 74.205 887.42 74.205C885.31 74.205 884.747 75.1897 884.747 79.1286Z" fill="#F7F7F7"/>
<path d="M945.653 87.2878C944.668 88.8352 948.888 92.4927 951.842 92.4927C952.826 92.4927 953.67 90.9453 953.67 89.1165C953.67 86.5844 952.967 85.7404 950.154 85.7404C948.185 85.7404 946.215 86.4437 945.653 87.2878Z" fill="#F7F7F7"/>
<path d="M910.91 87.9911C909.644 89.9605 913.864 92.9146 916.536 91.9299C917.662 91.5079 918.506 90.2418 918.224 89.2571C917.38 87.147 912.035 86.1623 910.91 87.9911Z" fill="#F7F7F7"/>
<path d="M969.846 88.2725C968.721 90.1012 971.675 93.8994 974.207 93.8994C977.161 93.8994 977.723 91.508 975.332 89.1165C972.8 86.4438 971.112 86.3031 969.846 88.2725Z" fill="#F7F7F7"/>
<path d="M925.539 91.6487C925.539 94.0401 926.242 95.3062 927.789 95.3062C929.196 95.3062 929.758 94.3214 929.477 92.2114C928.774 87.7098 925.539 87.2878 925.539 91.6487Z" fill="#F7F7F7"/>
<path d="M870.259 101.918C868.712 103.465 869.134 108.67 870.963 110.499C873.917 113.453 875.183 112.328 874.198 107.545C873.073 102.48 871.666 100.37 870.259 101.918Z" fill="#F7F7F7"/>
<path d="M895.437 103.324C893.75 105.012 894.594 109.373 896.703 109.373C897.829 109.373 898.813 108.107 898.813 106.701C898.813 103.746 896.985 101.918 895.437 103.324Z" fill="#F7F7F7"/>
<path d="M1005.15 104.872C1004.03 106.841 1005.86 112.328 1007.68 111.765C1009.79 111.062 1009.65 104.872 1007.54 104.169C1006.7 103.887 1005.57 104.169 1005.15 104.872Z" fill="#F7F7F7"/>
<path d="M982.083 107.404C982.365 108.67 983.912 110.64 985.741 111.906C988.694 113.875 988.835 113.734 988.835 110.358C988.835 107.123 986.585 105.153 982.927 105.153C982.224 105.153 981.802 106.138 982.083 107.404Z" fill="#F7F7F7"/>
<path d="M959.578 109.655C959.859 111.765 961.125 113.031 963.235 113.312C966.611 113.875 967.455 111.061 964.642 108.248C961.829 105.434 959.015 106.278 959.578 109.655Z" fill="#F7F7F7"/>
<path d="M910.066 110.639C910.066 112.749 910.91 113.594 913.02 113.594C914.989 113.594 915.692 112.89 915.411 111.202C914.708 107.545 910.066 107.123 910.066 110.639Z" fill="#F7F7F7"/>
<path d="M241.372 44.1011C227.587 47.1959 216.475 51.9788 206.066 59.2938C187.358 72.6577 175.965 90.3824 177.793 103.324C178.497 108.389 178.215 109.373 175.684 110.077C174.136 110.639 171.886 112.609 170.62 114.578C167.244 119.642 167.385 135.116 170.761 141.587C172.308 144.401 173.011 147.918 172.589 150.168C171.183 156.921 174.277 172.817 178.215 179.569C190.031 199.826 207.332 210.517 236.87 215.722C270.066 221.63 313.811 215.159 335.191 201.092C345.178 194.48 351.93 178.303 351.789 161.282C351.789 151.294 351.93 150.45 355.868 146.652C365.996 136.945 363.323 118.658 351.367 114.719C350.242 114.297 350.523 113.031 352.07 110.78C355.587 105.856 355.165 93.4772 351.367 85.5996C347.429 77.4405 327.596 57.6057 318.593 52.8228C305.793 45.9298 292.29 43.1164 270.769 42.413C256.281 41.991 248.404 42.413 241.372 44.1011ZM287.93 55.9176C301.996 57.887 317.468 65.0613 326.048 74.0644C332.659 80.8167 343.209 96.0094 343.209 98.6821C343.209 99.6668 341.24 100.089 338.004 99.8075C335.051 99.5262 326.048 100.792 317.89 102.48C302.84 105.856 292.993 106.278 288.914 104.028C287.226 103.043 285.82 103.465 284.132 105.153C282.866 106.419 278.506 107.967 274.708 108.529C270.347 109.092 266.69 110.499 265.002 112.327C262.611 114.86 262.33 115 261.626 112.749C261.064 111.343 256.141 108.811 248.967 106.278C238.418 102.48 237.152 102.34 235.183 104.309C233.073 106.278 233.354 106.982 237.011 110.78C239.543 113.312 244.185 115.985 248.404 117.251C255.156 119.22 256.985 119.08 271.051 116.548C279.35 115 292.009 113.312 298.901 112.89C305.934 112.468 317.468 110.78 324.783 109.233C331.956 107.685 338.145 106.7 338.426 106.982C341.38 109.795 318.593 118.517 295.385 123.581C278.365 127.239 247.139 128.645 232.369 126.395C216.897 124.003 198.892 118.236 195.517 114.719C189.89 108.529 190.593 96.0094 197.345 86.1623C206.629 72.517 219.71 63.0919 236.167 58.1684C246.013 55.3549 245.873 55.2142 241.934 59.4344C237.152 64.6393 239.684 65.4834 244.747 60.4191C247.561 57.465 250.796 55.9176 254.312 55.4956C265.143 54.3702 277.24 54.5109 287.93 55.9176ZM351.648 134.976C351.508 136.804 347.429 141.869 342.224 146.37C338.426 149.606 327.174 153.545 303.965 159.453C282.022 165.08 258.532 167.049 243.341 164.517C238.277 163.673 226.743 161.704 217.741 160.156C208.739 158.609 197.767 156.358 193.407 155.092C186.092 152.982 185.248 152.419 182.717 146.37C181.169 142.853 180.185 139.759 180.466 139.477C180.607 139.196 185.248 140.603 190.593 142.572C203.815 147.496 228.572 152.419 244.888 153.685C270.629 155.514 306.075 149.887 333.222 139.618C351.789 132.584 351.648 132.725 351.648 134.976ZM223.226 171.269C253.75 176.615 293.275 174.645 320.844 166.205C339.27 160.578 338.708 160.719 339.692 164.658C340.818 168.737 338.426 178.162 334.488 185.759C332.378 190.119 329.987 192.089 323.095 195.184C305.793 202.921 275.974 207.141 254.172 204.89C236.589 203.202 219.71 199.263 209.161 194.621C201.846 191.386 185.811 177.74 187.499 176.052C187.78 175.63 192 177.74 196.642 180.835C213.38 191.667 238.558 197.434 262.33 196.168C286.664 194.762 320.703 183.789 333.081 173.52C340.396 167.19 338.848 165.502 329.284 169.3C318.734 173.661 308.607 176.052 286.945 179.85C259.376 184.633 221.257 182.242 202.128 174.786C194.251 171.691 185.67 165.924 185.67 163.673C185.67 162.126 187.921 162.407 196.079 165.08C201.846 166.908 214.084 169.722 223.226 171.269Z" fill="#F7F7F7"/>
<path d="M281.319 59.8564C281.319 62.1072 284.694 64.358 288.07 64.358C290.743 64.358 291.165 64.9206 290.461 67.1714C289.758 69.2815 290.18 69.9849 292.29 69.9849C296.791 69.9849 296.791 68.4375 292.009 63.5139C287.789 59.1531 281.319 57.043 281.319 59.8564Z" fill="#F7F7F7"/>
<path d="M252.483 62.9512C251.358 64.78 258.391 71.8136 260.642 70.9696C261.626 70.6882 262.47 69.1408 262.751 67.5934C263.033 65.3427 262.048 64.3579 258.672 63.0919C253.187 61.2631 253.609 61.2631 252.483 62.9512Z" fill="#F7F7F7"/>
<path d="M230.681 75.0491C228.853 79.6913 228.853 80.5353 231.103 82.3641C233.635 84.6148 238.839 82.9268 239.965 79.5506C240.809 76.5965 237.152 71.3916 233.916 71.3916C232.932 71.3916 231.384 73.0797 230.681 75.0491Z" fill="#F7F7F7"/>
<path d="M215.349 76.456C211.833 80.8169 211.552 84.4743 214.505 86.8658C218.444 90.1013 220.835 87.4285 220.835 79.8321C220.835 71.9545 219.569 71.1104 215.349 76.456Z" fill="#F7F7F7"/>
<path d="M317.89 74.4865C317.89 77.1593 323.235 85.459 324.923 85.459C327.314 85.459 326.47 77.5813 323.798 75.1899C320.703 72.3764 317.89 72.0951 317.89 74.4865Z" fill="#F7F7F7"/>
<path d="M272.176 77.2999C270.066 80.3947 270.207 80.6761 273.02 83.0675C275.692 85.1776 276.536 85.3183 279.068 83.6302C284.554 79.9727 283.288 74.3458 276.818 74.2051C275.552 74.2051 273.442 75.6119 272.176 77.2999Z" fill="#F7F7F7"/>
<path d="M300.448 80.254C298.057 82.0827 298.057 82.5048 300.026 86.4436C303.121 92.3519 311.42 95.0246 313.108 90.5231C313.952 88.2724 310.013 79.832 308.185 79.832C307.481 79.832 306.075 79.5506 304.949 79.1286C303.965 78.7066 301.855 79.2693 300.448 80.254Z" fill="#F7F7F7"/>
<path d="M249.811 81.9422C247.982 86.7251 248.826 88.4131 252.906 87.9911C257.407 87.4284 257.829 84.4743 253.749 81.6608C251.077 79.9728 250.655 79.9728 249.811 81.9422Z" fill="#F7F7F7"/>
<path d="M284.695 90.3826C283.569 93.1961 285.257 95.3062 288.352 95.3062C291.587 95.3062 292.853 93.4774 291.727 90.5233C290.602 87.7098 285.679 87.5691 284.695 90.3826Z" fill="#F7F7F7"/>
<path d="M223.648 94.462C223.648 97.1348 228.29 101.777 228.993 99.8075C229.556 97.8381 226.743 92.4926 225.055 92.4926C224.211 92.4926 223.648 93.3366 223.648 94.462Z" fill="#F7F7F7"/>
<path d="M267.534 98.2603C267.675 99.9484 268.8 101.636 269.785 102.058C271.051 102.48 271.613 101.636 271.191 99.3857C271.051 97.6976 269.925 96.0095 268.941 95.5875C267.675 95.1655 267.112 96.0095 267.534 98.2603Z" fill="#F7F7F7"/>
<path d="M202.69 104.59C204.519 106.56 206.207 107.404 206.488 106.56C207.191 104.45 204.097 100.933 201.424 100.933C199.736 100.933 200.017 101.777 202.69 104.59Z" fill="#F7F7F7"/>
<path d="M1383.24 43.3979C1382.12 45.3673 1383.95 47.0554 1388.31 48.0401C1392.67 49.1655 1396.04 47.0554 1394.92 44.1013C1393.93 41.5692 1384.79 40.8658 1383.24 43.3979Z" fill="#F7F7F7"/>
<path d="M1357.36 46.0706C1357.36 49.306 1365.1 54.6516 1368.05 53.5262C1373.4 51.5568 1367.77 43.2571 1361.16 43.2571C1358.35 43.2571 1357.36 43.9605 1357.36 46.0706Z" fill="#F7F7F7"/>
<path d="M48.3868 48.1808C46.5582 50.9943 46.4176 52.1196 47.8242 53.8077C52.0439 58.8719 57.6703 54.0891 55.5604 47.4774C54.2945 43.6793 51.2 43.9606 48.3868 48.1808Z" fill="#F7F7F7"/>
<path d="M24.4747 48.1807C23.3494 51.1348 24.8967 54.511 27.2879 54.511C29.5384 54.511 31.6483 49.7281 30.2417 47.4773C28.9758 45.3673 25.3186 45.7893 24.4747 48.1807Z" fill="#F7F7F7"/>
<path d="M73.7054 47.8994C72.5802 50.9942 78.9098 58.3092 81.4417 56.7618C84.1142 55.0737 83.2703 50.2909 80.1758 50.2909C78.7692 50.2909 76.9406 49.1655 76.0967 47.7588C74.8307 45.508 74.6901 45.508 73.7054 47.8994Z" fill="#F7F7F7"/>
<path d="M0 52.4008C0 57.465 1.68791 58.4497 5.48571 56.0583C7.17363 54.9329 7.17363 54.2295 5.06374 51.1347C1.82857 46.0705 0 46.6332 0 52.4008Z" fill="#F7F7F7"/>
<path d="M100.431 50.9941C99.3053 53.8075 101.697 56.621 107.042 58.7311C114.919 62.1072 116.044 54.9329 108.167 50.9941C103.103 48.3213 101.415 48.3213 100.431 50.9941Z" fill="#F7F7F7"/>
<path d="M1334.01 52.4009C1332.61 55.9178 1334.44 58.4499 1339.08 59.4346C1344.7 60.7006 1345.55 59.8566 1343.3 54.511C1342.03 51.4162 1340.62 50.2908 1338.09 50.2908C1336.26 50.2908 1334.44 51.2755 1334.01 52.4009Z" fill="#F7F7F7"/>
<path d="M1414.61 52.26C1413.49 55.0735 1418.83 61.5444 1422.21 61.5444C1425.72 61.5444 1425.72 56.7616 1422.07 53.1041C1418.83 49.8686 1415.6 49.4466 1414.61 52.26Z" fill="#F7F7F7"/>
<path d="M1373.4 57.8872C1371.57 60.982 1371.43 61.9667 1372.84 63.7955C1373.82 64.9209 1376.07 65.7649 1377.62 65.4836C1380.01 65.2022 1380.57 64.0768 1380.57 60.138C1380.57 53.9484 1376.77 52.823 1373.4 57.8872Z" fill="#F7F7F7"/>
<path d="M1394.92 58.1683C1393.79 59.4344 1401.11 67.1714 1403.36 67.1714C1405.61 67.1714 1405.75 63.7952 1403.78 59.9971C1402.37 57.465 1396.89 56.3396 1394.92 58.1683Z" fill="#F7F7F7"/>
<path d="M95.7889 64.9207C93.9603 67.1714 95.2263 71.3916 97.7581 71.3916C98.7428 71.3916 100.29 70.4069 101.275 69.2815C102.681 67.5934 102.681 66.7494 101.275 65.0613C99.1647 62.3885 97.8988 62.3885 95.7889 64.9207Z" fill="#F7F7F7"/>
<path d="M17.8638 66.7495C17.3011 67.1715 16.8792 68.8596 16.8792 70.2663C16.8792 73.0798 20.5363 73.6425 23.9121 71.3917C25.7407 70.1256 25.6 69.7036 23.3495 67.8749C20.255 65.4834 19.2704 65.3428 17.8638 66.7495Z" fill="#F7F7F7"/>
<path d="M62.3121 68.0157C61.3275 70.6885 63.8594 73.5019 65.9693 72.2359C68.2198 70.8291 67.7978 67.5937 65.4066 66.6089C64.1407 66.1869 62.8747 66.7496 62.3121 68.0157Z" fill="#F7F7F7"/>
<path d="M1323.18 66.7494C1321.78 68.1561 1322.06 74.0644 1323.6 77.1592C1325.43 80.254 1330.36 80.676 1331.48 77.7219C1332.89 74.3457 1329.23 65.7647 1326.56 65.7647C1325.15 65.7647 1323.6 66.1867 1323.18 66.7494Z" fill="#F7F7F7"/>
<path d="M41.7757 68.1563C39.9472 69.8444 40.7911 75.3306 43.0417 76.1746C46.2768 77.4407 46.4175 77.3 46.4175 73.6425C46.4175 70.1257 43.323 66.4682 41.7757 68.1563Z" fill="#F7F7F7"/>
<path d="M1346.81 72.3764C1344.98 75.0492 1344.7 76.7373 1345.69 78.2847C1348.92 83.3489 1354.27 78.8474 1352.58 72.3764C1351.45 67.5936 1349.91 67.5936 1346.81 72.3764Z" fill="#F7F7F7"/>
<path d="M80.4571 73.7832C81.1604 77.3001 84.3955 77.7221 84.3955 74.3459C84.3955 72.6579 83.5516 71.3918 82.145 71.3918C80.8791 71.3918 80.1758 72.3765 80.4571 73.7832Z" fill="#F7F7F7"/>
<path d="M1422.77 72.7984C1420.8 76.0339 1429.1 82.2235 1432.76 80.1134C1434.58 79.1287 1434.44 78.4253 1431.91 75.1898C1428.82 71.3917 1424.32 70.2663 1422.77 72.7984Z" fill="#F7F7F7"/>
<path d="M0 76.3152C0 78.566 0.843956 79.832 2.10989 79.832C4.92308 79.832 4.92308 74.7678 2.10989 73.6424C0.562637 73.0797 0 73.7831 0 76.3152Z" fill="#F7F7F7"/>
<path d="M1380.57 75.612C1379.45 77.4407 1382.54 82.9269 1384.37 82.3642C1385.35 81.9422 1386.62 80.6762 1387.46 79.4101C1388.59 77.5814 1388.45 76.5967 1386.9 75.612C1384.23 73.7832 1381.7 73.7832 1380.57 75.612Z" fill="#F7F7F7"/>
<path d="M1403.92 78.988C1402.8 80.3948 1402.94 81.3795 1404.34 82.6455C1406.73 84.4743 1409.41 83.4896 1409.41 80.5354C1409.41 77.8626 1405.61 76.8779 1403.92 78.988Z" fill="#F7F7F7"/>
<path d="M1361.58 81.2388C1361.58 83.9116 1366.65 87.8505 1368.19 86.3031C1368.76 85.881 1368.33 83.9116 1367.49 81.9422C1365.52 77.722 1361.58 77.3 1361.58 81.2388Z" fill="#F7F7F7"/>
<path d="M88.1933 88.8352C87.7713 89.9606 88.3339 91.93 89.3185 93.4774C91.8504 96.7129 94.9449 94.1807 93.5383 89.8199C92.5537 86.4437 89.3185 85.8811 88.1933 88.8352Z" fill="#F7F7F7"/>
<path d="M63.2966 90.2419C63.2966 94.7435 65.1252 96.7129 69.0637 96.7129C73.8461 96.7129 74.2681 95.0248 70.3296 91.086C67.0944 87.8505 63.2966 87.4285 63.2966 90.2419Z" fill="#F7F7F7"/>
<path d="M1316.99 92.4927C1315.87 95.0248 1316.01 96.5722 1317.13 97.9789C1318.4 99.667 1318.82 99.5263 1319.1 96.9942C1319.38 95.3061 1319.38 92.774 1318.96 91.3673C1318.54 89.3979 1318.12 89.6792 1316.99 92.4927Z" fill="#F7F7F7"/>
<path d="M16.3165 94.1808C15.0506 99.1043 15.1912 99.5264 19.1297 99.5264C22.2242 99.5264 22.6462 98.9637 22.2242 95.7282C21.6616 90.8047 17.5825 89.6793 16.3165 94.1808Z" fill="#F7F7F7"/>
<path d="M1437.54 93.3365C1435.99 95.0246 1436.13 95.8687 1437.96 97.8381C1440.21 99.9482 1440.35 99.8075 1440.35 95.5873C1440.35 90.5231 1440.07 90.2417 1437.54 93.3365Z" fill="#F7F7F7"/>
<path d="M0 96.7127C0 99.8075 0.562637 100.652 2.10989 100.089C4.36044 99.1042 4.64176 98.1194 3.37582 94.7433C1.96923 91.0858 0 92.2112 0 96.7127Z" fill="#F7F7F7"/>
<path d="M1337.25 94.8842C1335.42 96.7129 1336.26 102.34 1338.37 102.34C1339.78 102.34 1340.48 100.933 1340.48 98.1197C1340.48 94.0401 1339.22 92.7741 1337.25 94.8842Z" fill="#F7F7F7"/>
<path d="M1415.03 95.1655C1415.03 98.401 1417 100.933 1419.39 100.933C1422.21 100.933 1422.63 99.8077 1421.22 96.1502C1420.38 93.7588 1415.03 92.9148 1415.03 95.1655Z" fill="#F7F7F7"/>
<path d="M1354.97 98.9634C1354.55 100.089 1355.11 102.058 1356.24 103.184C1357.93 104.872 1358.63 104.872 1360.74 103.324C1363.13 101.495 1363.13 101.355 1360.88 99.104C1357.93 96.1499 1356.1 96.0092 1354.97 98.9634Z" fill="#F7F7F7"/>
<path d="M1397.73 100.37C1396.33 101.777 1399.42 106.56 1401.67 106.56C1404.2 106.56 1404.48 103.606 1402.09 101.214C1400.26 99.3855 1399 99.1042 1397.73 100.37Z" fill="#F7F7F7"/>
<path d="M1286.61 141.306C1284.36 143.557 1285.63 160.578 1288.58 166.627C1292.52 174.927 1306.87 187.447 1318.68 193.074C1335.7 201.092 1351.74 204.187 1378.46 204.187C1403.08 204.327 1417.14 202.217 1432.9 196.309L1440.35 193.355V179.288C1440.35 165.502 1440.35 165.361 1437.26 166.346C1418.83 171.973 1389.86 176.052 1375.65 174.927C1364.4 174.083 1353.14 171.551 1328.81 164.376C1320.09 161.704 1311.37 160.016 1307.85 160.297C1304.62 160.438 1301.8 160.016 1301.52 159.172C1301.24 158.327 1298.71 153.826 1295.89 149.043C1291.11 140.884 1288.86 139.055 1286.61 141.306ZM1332.33 176.334C1361.3 183.649 1397.31 184.071 1421.36 177.459C1436.13 173.379 1437.26 173.661 1428.11 179.006C1404.62 192.652 1364.82 194.621 1330.07 183.93C1325.15 182.383 1319.53 179.428 1317.42 177.459C1313.34 173.239 1312.63 170.566 1316.01 171.832C1317.27 172.254 1324.59 174.364 1332.33 176.334Z" fill="#F7F7F7"/>
<path d="M702.031 233.869C675.446 239.918 646.47 262.707 638.453 283.808C635.218 292.248 634.514 299.282 636.343 305.19C637.328 308.425 637.046 308.988 633.249 309.832C627.341 311.098 621.574 317.569 620.73 324.321C620.308 327.416 620.73 335.434 621.714 342.187C623.121 351.893 624.387 355.691 628.185 361.318C632.686 368.211 632.827 368.774 632.827 382.419C632.827 394.517 633.249 397.33 636.624 404.786C640.844 414.071 650.128 423.777 659.692 428.701C679.947 439.11 734.523 439.954 762.374 430.389C779.112 424.621 788.536 418.009 795.991 406.756C802.04 397.471 803.728 387.624 801.758 372.713L800.211 360.615L806.119 355.691C813.574 349.502 815.824 344.015 815.824 331.777C815.824 323.477 815.262 321.367 812.308 317.85C810.479 315.6 806.963 312.927 804.572 311.942C800.492 310.254 800.352 309.973 802.602 307.581C803.868 306.175 805.275 301.954 805.556 298.297C806.119 292.529 805.416 289.856 800.492 280.291C797.398 274.101 791.631 265.379 787.692 261.019C778.409 250.609 761.952 239.636 749.996 235.838C737.618 232.04 714.55 231.055 702.031 233.869ZM744.651 247.373C750.699 248.921 758.013 251.312 760.967 252.86C772.079 258.486 793.319 286.48 793.319 295.343C793.319 299 792.897 299.282 787.692 299.282C780.659 299.282 771.095 301.251 752.95 306.456C732.273 312.364 717.785 314.052 705.547 311.942C688.246 308.988 663.209 303.22 661.521 301.814C660.536 301.11 659.13 300.829 658.286 301.392C655.895 302.798 648.44 299.282 648.299 296.609C647.455 285.496 658.567 270.022 675.587 258.205C697.108 243.575 716.941 240.34 744.651 247.373ZM641.266 323.055C645.205 328.541 652.238 330.933 676.712 335.153C700.343 339.233 723.974 339.795 742.681 336.7C757.169 334.309 781.925 327.275 792.053 322.633C797.539 320.101 800.07 319.538 802.04 320.523C808.791 324.181 803.165 328.682 781.363 337.123C745.917 350.908 720.317 353.019 677.275 345.704C650.128 341.061 636.906 336.419 632.405 329.667C630.013 325.869 630.013 325.728 633.108 322.352C637.187 317.991 637.75 318.132 641.266 323.055ZM805.978 339.936C805.978 340.639 803.728 343.312 801.055 345.844C797.82 348.939 796.132 351.893 796.132 354.285C796.132 357.942 795.851 358.083 776.862 361.74C766.172 363.85 748.589 366.523 737.899 367.789C719.895 369.759 716.659 369.759 697.53 367.649C672.352 364.835 646.892 360.615 642.954 358.505C640.281 356.957 632.967 347.532 632.967 345.563C632.967 345 637.609 346.126 643.376 347.954C663.772 354.425 703.297 359.349 722.708 357.661C751.684 355.41 789.099 347.251 800.352 340.78C804.431 338.389 805.978 338.248 805.978 339.936ZM789.662 374.119C791.209 380.028 790.506 394.939 788.536 399.863C785.442 407.037 770.391 416.181 753.231 421.245C742.119 424.48 703.859 425.324 688.528 422.652C662.084 418.009 654.207 413.226 644.501 395.783C639.016 386.077 639.297 383.967 644.923 392.266C651.112 400.988 661.521 409.569 669.961 412.804C683.183 417.869 705.829 420.682 726.506 419.838C747.042 418.994 757.451 416.603 770.813 409.85C782.769 403.942 783.895 400.425 773.345 402.113C769.266 402.817 755.903 404.927 743.666 406.896C719.754 410.694 706.391 411.257 692.044 408.866C679.666 406.896 664.897 401.551 658.708 397.049C653.644 392.97 647.033 381.153 647.033 375.526C647.033 371.869 646.752 371.869 652.8 374.401C658.005 376.511 695.983 380.872 709.627 380.872C721.723 380.872 755.2 377.074 770.813 373.979C788.396 370.462 788.677 370.462 789.662 374.119Z" fill="#F7F7F7"/>
<path d="M715.534 246.811C713.846 248.499 714.549 251.453 716.659 252.437C718.91 253.141 724.396 249.343 724.396 246.951C724.396 245.544 716.8 245.404 715.534 246.811Z" fill="#F7F7F7"/>
<path d="M734.242 249.624C734.382 253.141 739.727 256.095 742.681 254.266C744.229 253.282 744.229 252.719 742.822 250.89C740.993 248.639 734.242 247.655 734.242 249.624Z" fill="#F7F7F7"/>
<path d="M692.044 255.11C690.215 259.893 690.215 259.893 694.013 259.893C697.952 259.893 701.187 256.517 699.921 253.563C698.655 250.046 693.591 251.031 692.044 255.11Z" fill="#F7F7F7"/>
<path d="M747.745 260.737C746.057 265.098 746.901 266.927 750.277 266.927C754.919 266.927 756.185 264.535 753.09 261.159C750.136 257.924 748.87 257.783 747.745 260.737Z" fill="#F7F7F7"/>
<path d="M723.833 263.41C722.567 266.786 724.396 269.74 727.912 269.74C732.413 269.74 735.086 266.223 732.835 263.41C731.851 262.285 729.6 261.3 727.912 261.3C726.084 261.3 724.396 262.285 723.833 263.41Z" fill="#F7F7F7"/>
<path d="M704.985 266.505C705.266 268.052 706.954 269.178 709.486 269.459C712.721 269.881 713.424 269.459 712.58 267.63C712.158 266.364 711.736 264.957 711.736 264.676C711.736 264.395 710.048 264.113 708.079 264.113C705.407 264.113 704.563 264.817 704.985 266.505Z" fill="#F7F7F7"/>
<path d="M668.132 271.006C665.6 275.789 666.444 283.526 669.538 285.214C673.758 287.465 675.165 285.918 673.617 280.572C672.914 278.181 672.352 274.382 672.352 272.272C672.352 267.771 670.242 267.067 668.132 271.006Z" fill="#F7F7F7"/>
<path d="M763.218 269.459C762.374 271.006 766.453 275.93 771.235 278.884L775.033 281.275V277.196C775.033 274.804 773.908 271.991 772.501 270.725C769.829 268.193 764.484 267.489 763.218 269.459Z" fill="#F7F7F7"/>
<path d="M687.402 273.116C686.136 276.211 691.341 282.12 693.451 280.15C696.123 277.618 694.576 271.85 691.2 271.428C689.512 271.147 687.824 271.991 687.402 273.116Z" fill="#F7F7F7"/>
<path d="M735.367 275.508C731.991 277.477 732.132 280.572 735.789 282.542C739.446 284.511 741.697 282.542 740.993 278.04C740.431 274.383 738.743 273.539 735.367 275.508Z" fill="#F7F7F7"/>
<path d="M709.626 279.587C708.079 282.119 714.128 287.606 716.097 285.636C716.941 284.792 717.363 282.963 717.081 281.557C716.519 278.462 711.174 277.196 709.626 279.587Z" fill="#F7F7F7"/>
<path d="M752.668 282.26C749.995 283.948 751.824 288.028 755.341 288.028C757.45 288.028 758.154 287.043 758.154 284.511C758.154 280.854 756.184 280.15 752.668 282.26Z" fill="#F7F7F7"/>
<path d="M699.077 292.529C699.077 297.171 698.233 297.875 693.31 296.468C690.356 295.624 689.231 295.765 689.231 297.031C689.231 300.266 692.607 302.095 698.514 302.095H704.422L702.734 296.609C700.765 289.716 699.077 287.887 699.077 292.529Z" fill="#F7F7F7"/>
<path d="M719.754 296.187C714.69 301.814 716.237 302.376 737.618 301.814C756.888 301.392 761.389 300.688 758.998 298.156C757.169 296.327 741.556 296.75 737.758 298.719C734.523 300.407 733.96 300.266 733.257 298.156C732.695 296.89 731.71 295.343 730.866 294.78C728.053 292.811 722.004 293.655 719.754 296.187Z" fill="#F7F7F7"/>
<path d="M765.187 379.465C727.631 386.639 708.782 387.624 677.134 383.545C670.945 382.701 663.35 382.279 660.255 382.56L654.769 383.123L663.209 387.061C683.323 396.487 714.69 398.456 749.996 392.266C772.782 388.328 785.442 383.967 786.004 379.746C786.567 375.948 784.176 375.808 765.187 379.465Z" fill="#F7F7F7"/>
<path d="M17.5824 240.058C0.140622 244.56 -3.7632e-05 244.701 -3.7632e-05 252.86V260.034L4.07908 256.939C7.59557 254.407 9.5648 253.985 18.7077 254.548C24.6153 254.829 28.5538 254.548 27.7099 253.985C23.7714 251.593 29.3978 251.171 47.9648 252.719C66.6725 254.407 68.6417 254.829 78.7692 259.893C85.3802 263.129 92.2725 268.052 96.7736 272.835C104.932 280.994 113.371 296.609 114.778 305.893L115.622 311.661L109.152 312.645C105.635 313.208 101.415 313.349 99.8681 312.927C97.0549 312.223 92.8351 315.037 92.8351 317.71C92.8351 318.413 94.3824 318.694 96.211 318.132C98.0395 317.71 100.009 317.991 100.431 318.835C101.134 319.82 99.7274 320.382 96.6329 320.382C93.9604 320.382 89.7406 320.804 87.3494 321.227L82.989 322.071V314.193C82.989 307.3 82.7077 306.175 80.5978 306.597C78.6285 306.878 77.7846 309.129 76.8 315.6L75.534 324.181L50.778 325.306C37.134 326.009 20.3956 326.572 13.3626 326.572L0.703259 326.713L0.281281 331.777C-0.281356 338.248 0.843919 338.529 23.2088 338.811L40.0879 338.951L28.9758 341.905C18.989 344.438 16.7384 344.578 9.42414 343.031C1.82853 341.483 -1.68795 341.765 0.281281 343.734C0.703259 344.156 10.9714 345.141 22.9274 345.985C41.9164 347.392 46.1362 347.251 56.6857 345.282C63.2967 344.015 70.4703 342.187 72.7208 341.343C76.5186 339.936 76.5186 339.795 73.9868 337.826C72.4395 336.701 68.5011 335.856 65.1252 335.856C56.545 335.856 57.5296 333.465 66.5318 332.48C81.1604 330.933 99.8681 330.652 99.8681 331.777C99.8681 332.48 99.3055 333.043 98.7428 333.043C98.0395 333.043 93.3978 335.575 88.1934 338.67C79.7538 343.734 76.9406 344.578 56.6857 347.954C34.8835 351.471 20.1142 351.752 4.64172 349.08L-3.7632e-05 348.236V360.896V373.697L6.61095 374.823C10.4088 375.386 23.2088 375.948 35.1648 375.948C52.7472 375.948 59.7802 375.386 71.4549 372.713C87.2088 369.196 109.574 361.037 115.763 356.676C119.701 353.863 123.78 354.003 123.78 357.098C123.78 359.208 114.778 367.367 106.901 372.431C98.0395 378.058 77.7846 384.67 60.3428 387.343C46.1362 389.593 16.7384 389.453 4.64172 387.061C0.140622 386.217 -3.7632e-05 386.217 -3.7632e-05 391.282V396.346H28.5538C63.7186 396.346 77.0813 394.798 93.3978 388.609C105.354 384.107 109.152 383.404 106.057 386.358C103.103 389.171 77.3626 398.315 64.8439 400.988C54.1538 403.239 46.1362 403.942 25.7406 403.942L-3.7632e-05 404.083V410.694C-3.7632e-05 414.352 0.5626 417.728 1.40656 418.15C2.10985 418.572 11.6747 418.994 22.3648 418.994C55.7011 418.994 91.8505 409.71 112.809 395.783C119.56 391.422 117.169 395.924 108.026 405.067C96.3516 416.884 84.6769 422.37 62.734 426.872C47.8241 429.967 43.4637 430.248 26.7252 429.545C16.3164 429.123 6.04831 428.419 3.79776 427.856C0.140622 427.012 -3.7632e-05 427.153 -3.7632e-05 432.499V438.126L10.9714 439.673C48.3868 445.441 94.1011 435.171 112.949 416.884C122.514 407.6 125.749 400.425 125.468 389.031C125.327 380.872 125.749 379.324 128 378.058C129.547 377.214 130.813 375.386 130.813 373.838C130.813 372.431 131.798 367.227 133.064 362.444C137.002 346.97 131.516 338.67 117.451 338.67H112.105L117.872 332.48C125.609 324.181 128 318.976 128 310.957C128 293.936 120.404 277.618 105.494 262.707C90.0219 247.092 69.6263 239.214 42.1978 238.089C30.8044 237.526 25.178 237.948 17.5824 240.058ZM115.341 318.835C115.341 320.804 110.558 322.071 107.464 320.804C105.072 319.96 105.072 319.679 108.308 318.835C113.512 317.428 115.341 317.428 115.341 318.835ZM121.389 374.119C119.56 375.808 117.872 376.792 117.31 376.23C115.903 374.823 119.56 371.025 122.092 371.025C123.921 371.025 123.78 371.587 121.389 374.119Z" fill="#F7F7F7"/>
<path d="M262.189 240.762C240.387 245.826 226.602 252.719 213.943 265.239C202.268 276.774 196.501 287.887 196.36 299.281C196.22 303.502 196.782 308.144 197.345 309.41C198.33 311.239 197.345 312.364 192.844 314.615C184.826 318.835 183.842 321.508 184.545 336.7C185.248 350.205 188.343 358.223 195.235 364.413C197.486 366.523 198.048 368.915 198.189 378.199C198.33 384.248 199.173 391.844 200.299 394.939C203.253 403.661 210.848 415.618 219.006 424.48C225.758 431.795 227.587 432.921 237.995 436.156C274.848 447.691 308.606 446.003 338.567 431.373C357.697 422.089 362.901 412.242 364.026 383.263L364.73 365.116L369.371 362.866C372.044 361.74 374.435 359.349 374.857 357.801C375.279 356.113 377.389 350.486 379.358 345.281L383.015 335.716L379.78 325.869C376.826 316.444 376.123 315.74 370.497 313.208C364.73 310.817 364.448 310.395 365.714 307.018C368.105 300.688 367.261 294.358 362.76 285.355C353.899 267.489 334.066 251.171 312.123 243.575C299.042 239.074 275.411 237.807 262.189 240.762ZM300.448 250.609C325.486 257.22 354.321 282.26 354.461 297.453C354.461 301.392 346.303 304.486 341.943 302.236C337.723 299.985 335.191 300.266 308.888 306.315C295.525 309.41 281.741 311.942 278.365 311.942C274.848 311.942 261.345 310.113 248.264 307.722C235.042 305.471 222.804 303.502 220.835 303.502C217.037 303.502 208.176 296.468 208.176 293.373C208.176 291.404 220.976 274.945 225.758 270.725C231.103 266.083 244.044 257.642 249.951 255.11C264.299 248.78 286.382 246.811 300.448 250.609ZM366.417 323.055C369.09 324.181 368.809 324.603 363.464 329.807C353.055 339.795 324.923 348.095 296.791 349.502C279.349 350.346 261.767 347.954 230.4 340.639C214.646 336.841 213.943 336.419 216.475 329.807L217.741 326.431L227.446 329.667C249.951 337.122 284.694 340.358 310.435 337.404C323.938 335.856 354.321 327.557 358.541 324.321C362.198 321.508 362.338 321.508 366.417 323.055ZM200.58 329.526C202.69 331.496 203.675 333.043 202.831 333.043C200.017 333.043 194.25 329.948 193.547 327.979C192.281 324.743 196.501 325.728 200.58 329.526ZM373.31 338.951C372.747 339.936 370.919 342.609 369.231 345C367.543 347.251 365.714 350.346 365.292 351.612C364.73 353.159 362.901 354.144 360.791 354.144C358.541 354.144 356.853 355.129 356.431 356.535C354.321 363.428 352.633 364.132 326.33 368.915C312.545 371.306 285.82 371.728 268.659 369.618C248.404 367.086 207.754 358.364 203.956 355.691C200.158 353.018 194.391 343.593 195.657 342.327C196.079 341.905 204.097 343.734 213.521 346.407C243.481 354.847 263.033 357.52 292.571 357.52C312.264 357.52 321.547 356.957 330.549 354.988C345.319 351.893 362.198 345.422 367.824 340.78C372.466 337.122 374.998 336.278 373.31 338.951ZM216.756 373.135C229.275 378.762 246.435 381.153 282.725 381.856C309.31 382.419 318.312 382.138 328.861 380.309C346.303 377.355 347.006 377.355 349.538 382.278C352.352 387.624 352.211 400.988 349.398 406.333C341.099 422.37 329.143 427.294 288.773 430.811C278.083 431.795 257.969 429.826 244.044 426.45C236.167 424.48 219.71 415.337 221.257 413.789C221.679 413.367 229.837 414.352 239.402 415.899C271.472 421.385 312.686 419.135 329.846 411.116C336.879 407.74 341.521 404.083 340.255 402.676C339.973 402.395 334.91 403.098 329.283 404.223C309.872 407.881 279.49 410.694 268.659 409.991C258.11 409.147 222.382 402.957 217.6 401.129C213.521 399.581 210.004 390.859 208.879 379.746C208.316 374.26 208.176 369.618 208.598 369.618C208.879 369.618 212.677 371.165 216.756 373.135Z" fill="#F7F7F7"/>
<path d="M296.369 256.517C294.4 258.627 299.042 262.707 303.402 262.707C309.31 262.707 309.45 260.456 303.543 259.33C299.886 258.627 299.323 258.064 301.011 257.08C302.699 255.954 302.558 255.673 300.167 255.673C298.62 255.673 296.932 256.095 296.369 256.517Z" fill="#F7F7F7"/>
<path d="M272.457 259.612C267.393 265.239 270.91 268.474 277.099 263.973C280.334 261.581 280.897 260.315 279.771 258.909C277.521 256.376 275.13 256.658 272.457 259.612Z" fill="#F7F7F7"/>
<path d="M239.824 268.896C237.574 272.272 237.714 276.774 240.105 276.774C242.778 276.633 244.888 274.101 245.169 270.444C245.591 265.239 242.637 264.395 239.824 268.896Z" fill="#F7F7F7"/>
<path d="M259.516 272.976C260.22 275.367 259.798 276.633 258.11 277.337C256.844 277.759 256.281 278.743 256.703 279.587C257.688 281.275 262.611 281.416 263.596 279.869C264.721 278.04 262.33 270.725 260.501 270.022C259.235 269.6 258.954 270.584 259.516 272.976Z" fill="#F7F7F7"/>
<path d="M296.369 272.554C295.947 274.101 296.229 275.789 296.932 276.211C298.76 277.196 302.418 274.242 302.418 271.71C302.418 268.615 297.213 269.459 296.369 272.554Z" fill="#F7F7F7"/>
<path d="M282.163 274.101C280.053 277.337 280.053 277.618 282.303 279.165C285.538 281.557 289.758 281.416 289.758 279.025C289.758 277.899 288.633 275.649 287.226 273.96L284.554 270.725L282.163 274.101Z" fill="#F7F7F7"/>
<path d="M319.578 274.242C317.046 276.774 317.468 279.165 320.984 281.557C327.877 286.48 331.815 282.541 326.892 275.648C324.501 272.132 322.11 271.71 319.578 274.242Z" fill="#F7F7F7"/>
<path d="M304.387 285.918C302.277 287.465 302.136 288.028 303.684 289.997C307.2 294.217 313.248 292.248 311.42 287.606C310.295 284.511 307.341 283.667 304.387 285.918Z" fill="#F7F7F7"/>
<path d="M249.108 289.997C247.842 291.404 247.842 292.248 248.967 292.951C251.358 294.358 254.171 291.263 252.343 289.434C251.218 288.309 250.233 288.59 249.108 289.997Z" fill="#F7F7F7"/>
<path d="M230.259 293.233C228.712 294.64 229.134 299.282 230.681 299.282C231.525 299.282 232.088 297.734 232.088 295.765C232.088 292.107 231.807 291.685 230.259 293.233Z" fill="#F7F7F7"/>
<path d="M268.8 295.624C266.127 298.719 267.956 302.095 272.035 302.095C274.004 302.095 277.24 302.798 279.209 303.783C281.881 304.909 283.569 304.909 286.382 303.783C291.165 301.532 289.196 298.86 283.569 299.844C279.912 300.548 278.927 300.126 277.802 297.594C276.114 293.655 271.191 292.67 268.8 295.624Z" fill="#F7F7F7"/>
<path d="M215.912 382.278C214.365 384.951 216.615 386.358 228.009 390.015C248.826 396.486 270.066 399.581 289.055 398.737C306.356 397.893 334.629 393.392 341.099 390.437C344.475 388.89 345.881 384.67 343.349 383.123C342.646 382.56 337.301 383.263 331.393 384.248C307.341 388.89 287.508 389.734 264.439 387.343C252.624 386.077 238.136 384.107 232.228 382.982C219.569 380.45 217.037 380.45 215.912 382.278Z" fill="#F7F7F7"/>
<path d="M1369.04 240.762C1346.25 245.123 1331.9 252.016 1317.56 265.52C1304.47 277.618 1297.86 294.78 1303.07 302.658C1305.88 307.159 1305.88 307.722 1302.79 307.722C1299.27 307.722 1291.96 315.6 1289 322.493C1283.94 334.169 1287.45 366.101 1294.21 369.055C1297.02 370.321 1297.16 371.306 1297.02 390.719C1296.88 410.413 1296.88 411.398 1300.82 419.557C1306.02 430.248 1318.12 441.643 1329.23 445.722C1358.77 456.976 1404.34 457.398 1432.47 446.847L1440.35 444.034V437.563C1440.35 432.077 1440.07 431.373 1437.96 432.218C1428.68 435.734 1407.86 438.829 1388.31 439.532C1344.14 440.939 1319.67 431.233 1307.01 407.459L1303.77 401.269L1307.01 405.49C1321.35 424.058 1334.44 430.107 1370.02 434.328C1390.7 436.86 1416.02 435.172 1434.87 430.107C1439.93 428.701 1440.35 428.138 1440.35 423.777C1440.35 421.104 1440.07 418.854 1439.65 418.854C1439.23 418.854 1434.87 419.698 1430.08 420.823C1405.61 426.45 1374.8 427.294 1355.25 423.074C1339.78 419.698 1323.46 411.961 1319.24 406.052C1316.01 401.41 1310.38 385.233 1311.65 383.967C1312.07 383.545 1315.73 384.248 1319.95 385.514C1344.98 393.532 1414.61 395.221 1437.96 388.468C1439.79 387.906 1440.35 386.217 1440.35 381.294C1440.35 376.23 1439.93 375.104 1438.24 375.808C1437.12 376.23 1428.68 377.636 1419.67 378.903C1399.56 381.716 1379.45 380.872 1348.36 375.948C1314.32 370.603 1306.73 367.086 1300.54 354.003C1298.57 350.205 1297.44 347.11 1297.72 347.11C1298.15 347.11 1300.82 348.377 1303.91 349.924C1317.98 357.098 1335.84 361.6 1366.93 365.961C1386.76 368.774 1402.09 368.774 1419.25 366.101C1441.48 362.584 1440.35 363.006 1440.35 357.38C1440.35 351.612 1443.45 351.612 1413.91 357.802C1396.33 361.459 1394.64 361.6 1382.96 360.052C1351.03 355.551 1307.99 343.312 1301.1 336.982C1297.86 333.887 1297.44 327.698 1300.11 323.899C1301.94 321.508 1302.36 321.789 1305.32 327.135C1309.68 335.013 1320.65 339.373 1346.81 343.734C1366.79 347.11 1409.69 346.97 1426.99 343.312L1439.65 340.78L1440.07 324.321L1440.49 307.863L1434.44 309.973C1424.74 313.349 1397.45 317.569 1384.93 317.569C1365.24 317.569 1324.73 308.847 1321.07 303.924C1320.09 302.517 1317.84 299.141 1316.01 296.328L1312.63 291.263L1319.67 282.26C1330.92 267.49 1338.8 262.144 1358.63 255.532C1369.46 251.875 1372.27 251.453 1390 251.453C1408.7 251.453 1409.97 251.594 1419.67 255.673C1425.3 258.065 1432.19 261.581 1435.15 263.551L1440.35 266.927V258.768V250.468L1433.74 247.373C1429.94 245.685 1423.47 243.294 1419.25 242.169C1408.28 239.214 1381.42 238.37 1369.04 240.762Z" fill="#F7F7F7"/>
<path d="M1147.78 243.013C1136.25 244.701 1119.51 250.187 1104.18 257.361C1094.33 262.003 1089.97 265.38 1079.98 275.367C1065.21 289.997 1059.73 300.266 1061.13 310.395C1061.7 314.615 1061.27 317.991 1059.73 321.227C1057.9 325.025 1057.62 328.12 1058.32 334.872C1059.87 347.954 1062.54 352.456 1069.86 354.425C1073.23 355.41 1076.04 356.817 1076.04 357.802C1076.04 365.257 1095.88 375.526 1117.54 379.465C1155.52 386.217 1179.85 385.655 1219.52 377.355C1231.61 374.823 1235.55 373.135 1243.99 366.523C1251.87 360.334 1253.56 359.912 1252.71 364.273C1250.46 374.964 1251.31 374.26 1236.82 379.887C1205.87 392.126 1205.17 392.266 1184.07 394.658C1163.67 396.768 1163.11 396.768 1144.69 393.532C1134.42 391.844 1119.93 388.75 1112.62 386.921C1105.3 384.951 1095.17 383.263 1090.25 382.982L1081.39 382.701L1078.72 376.652C1073.51 365.117 1065.21 356.958 1062.68 361.037C1060.43 364.835 1070.28 391.141 1076.18 397.19C1099.25 420.964 1155.09 431.655 1204.04 421.386C1226.97 416.603 1248.35 404.505 1253.7 393.11C1254.96 390.578 1256.93 379.465 1258.34 368.211C1260.17 352.878 1261.43 347.11 1263.4 344.86C1265.09 342.89 1265.93 339.795 1265.93 334.872C1265.93 325.728 1264.95 323.337 1260.59 321.649C1257.35 320.383 1257.21 320.101 1259.46 317.71C1261.01 316.022 1261.71 312.646 1261.71 307.441C1261.71 287.325 1239.63 261.581 1212.76 250.75C1195.04 243.575 1167.61 240.34 1147.78 243.013ZM1199.82 257.783C1211.36 261.441 1217.83 265.098 1227.82 273.679C1239.35 283.808 1245.68 292.389 1248.49 301.814C1251.16 310.676 1250.04 314.756 1243.01 321.508C1232.46 331.636 1215.44 336.138 1176.76 338.811C1144.83 340.921 1124.57 339.936 1106.29 335.153C1088.28 330.511 1079.14 325.447 1074.92 317.851C1072.11 312.786 1071.82 311.38 1073.23 306.456C1075.34 298.719 1084.76 284.933 1092.64 278.462C1105.44 267.912 1125.7 258.909 1143.56 255.814C1155.24 253.704 1190.54 254.97 1199.82 257.783ZM1203.76 344.438C1198 347.673 1178.73 352.878 1169.58 353.581C1164.1 354.003 1155.09 353.441 1149.19 352.315L1138.64 350.487L1160.44 349.502C1174.65 348.799 1185.62 347.532 1192.09 345.844C1203.48 342.75 1207.42 342.187 1203.76 344.438ZM1135.54 349.502C1134.56 349.783 1132.87 349.783 1132.03 349.502C1131.04 349.08 1131.75 348.799 1133.71 348.799C1135.68 348.799 1136.39 349.08 1135.54 349.502ZM1234.71 389.594C1232.32 396.487 1210.23 405.771 1186.74 409.851C1169.44 412.945 1140.33 411.82 1124.57 407.74C1111.91 404.364 1095.74 397.19 1095.74 395.08C1095.74 392.97 1097.56 393.11 1111.21 396.487C1141.03 403.661 1168.88 405.208 1192.93 401.129C1207.98 398.597 1225.99 393.251 1230.07 390.156C1233.44 387.484 1235.41 387.343 1234.71 389.594Z" fill="#F7F7F7"/>
<path d="M1172.68 262.144C1169.72 265.098 1173.66 269.037 1178.02 267.49C1180.27 266.505 1180.98 262.707 1178.87 262.707C1178.16 262.707 1176.62 262.425 1175.63 262.003C1174.51 261.581 1173.24 261.722 1172.68 262.144Z" fill="#F7F7F7"/>
<path d="M1192.79 266.223C1192.79 268.896 1197.29 271.288 1199.68 269.74C1200.81 269.177 1201.23 267.63 1200.81 266.364C1199.68 263.551 1192.79 263.269 1192.79 266.223Z" fill="#F7F7F7"/>
<path d="M1132.59 277.055C1132.87 282.12 1133.57 283.245 1136.25 283.526C1140.61 284.23 1141.59 280.713 1138.5 275.508C1134.7 269.037 1132.03 269.881 1132.59 277.055Z" fill="#F7F7F7"/>
<path d="M1109.1 276.774C1107.69 279.025 1109.66 283.808 1112.05 283.808C1113.18 283.808 1114.02 282.682 1114.02 281.135C1114.02 277.899 1110.51 274.523 1109.1 276.774Z" fill="#F7F7F7"/>
<path d="M1160.02 280.572C1158.47 282.12 1158.89 287.324 1160.72 289.153C1163.39 291.826 1164.66 291.123 1164.66 286.762C1164.66 282.682 1161.71 278.743 1160.02 280.572Z" fill="#F7F7F7"/>
<path d="M1188.85 283.386C1189.27 287.887 1192.37 288.59 1194.76 284.792C1195.89 282.823 1195.89 281.979 1194.2 280.994C1190.26 278.462 1188.43 279.447 1188.85 283.386Z" fill="#F7F7F7"/>
<path d="M1214.03 283.386C1212.48 286.902 1212.62 287.465 1215.44 289.856C1219.09 292.811 1222.19 292.529 1224.3 289.012C1225.56 286.902 1225.14 285.777 1221.91 282.963C1216.84 278.743 1216.14 278.743 1214.03 283.386Z" fill="#F7F7F7"/>
<path d="M1098.13 296.046C1097.56 296.468 1097.14 298.438 1097.14 300.266C1097.14 302.799 1097.85 303.502 1100.66 303.502C1104.18 303.502 1105.02 301.673 1103.33 297.312C1102.49 295.062 1099.67 294.358 1098.13 296.046Z" fill="#F7F7F7"/>
<path d="M1123.45 297.312C1122.88 297.875 1122.46 299.844 1122.46 301.673C1122.46 304.205 1123.16 305.049 1124.99 304.627C1126.4 304.346 1127.38 302.939 1127.38 300.829C1127.38 297.453 1125.27 295.624 1123.45 297.312Z" fill="#F7F7F7"/>
<path d="M1149.33 299.141C1147.64 300.266 1147.64 300.829 1149.05 302.658C1151.3 305.331 1153.41 304.346 1153.41 300.548C1153.41 297.594 1152.42 297.312 1149.33 299.141Z" fill="#F7F7F7"/>
<path d="M1200.25 300.126C1199.12 303.08 1203.48 307.441 1205.59 305.331C1206.72 304.205 1206.72 302.939 1205.59 300.829C1203.62 297.312 1201.51 297.031 1200.25 300.126Z" fill="#F7F7F7"/>
<path d="M1175.91 301.392C1173.8 303.924 1175.21 306.315 1178.73 306.315C1182.38 306.315 1183.37 304.064 1180.69 301.532C1178.02 298.86 1178.02 298.86 1175.91 301.392Z" fill="#F7F7F7"/>
<path d="M1139.34 305.049C1139.34 306.597 1140.04 307.441 1140.75 307.019C1141.59 306.597 1142.15 305.19 1142.15 304.065C1142.15 302.939 1141.59 302.095 1140.75 302.095C1140.04 302.095 1139.34 303.361 1139.34 305.049Z" fill="#F7F7F7"/>
<path d="M1082.65 314.334C1080.83 316.022 1081.67 320.101 1083.92 320.945C1087.16 322.211 1087.58 321.367 1086.03 317.006C1084.48 313.068 1084.06 312.786 1082.65 314.334Z" fill="#F7F7F7"/>
<path d="M1226.55 317.288C1226.55 318.835 1227.67 320.945 1229.22 322.352C1232.6 325.447 1235.27 322.633 1233.44 317.85C1232.04 314.052 1226.55 313.49 1226.55 317.288Z" fill="#F7F7F7"/>
<path d="M1102.77 319.538C1102.77 323.055 1104.46 326.009 1106.43 326.009C1109.52 326.009 1110.36 322.211 1107.97 319.679C1105.3 317.006 1102.77 317.006 1102.77 319.538Z" fill="#F7F7F7"/>
<path d="M1178.3 321.227C1176.33 323.196 1177.46 327.416 1180.27 328.823C1184.07 330.933 1185.2 329.667 1183.51 325.025C1182.24 321.227 1179.99 319.539 1178.3 321.227Z" fill="#F7F7F7"/>
<path d="M1204.61 322.633C1205.03 323.899 1205.45 325.447 1205.45 326.15C1205.45 326.853 1207 327.416 1208.97 327.416C1213.61 327.416 1213.61 323.477 1208.83 321.789C1204.04 319.96 1203.62 319.96 1204.61 322.633Z" fill="#F7F7F7"/>
<path d="M1127.24 323.899C1126.26 326.291 1127.67 328.823 1129.92 328.823C1133.15 328.823 1135.26 326.431 1134.28 324.181C1133.15 321.226 1128.23 321.086 1127.24 323.899Z" fill="#F7F7F7"/>
<path d="M915.974 249.202C897.688 254.126 884.325 261.019 871.244 272.132C861.96 280.15 859.147 283.667 854.505 292.951C848.879 304.346 847.191 314.615 850.004 320.523C850.848 322.352 850.286 323.055 847.754 323.759C844.097 324.603 841.143 330.511 841.143 336.841C841.143 340.217 845.503 357.801 848.176 364.554C848.879 366.664 849.582 370.743 849.582 373.557C849.723 389.312 867.446 407.6 889.108 414.493C908.941 420.823 946.778 424.34 964.923 421.385C978.989 419.275 997.415 412.804 1006 407.037C1019.5 398.174 1024.84 387.202 1023.72 370.321C1023.16 361.178 1023.3 360.193 1025.97 358.927C1029.49 357.379 1033.71 347.11 1033.71 339.795C1033.85 332.199 1031.74 327.697 1026.11 324.462L1021.19 321.508L1024.84 318.554C1028.22 315.881 1028.5 315.037 1027.8 308.003C1025.97 290.7 1011.34 271.006 991.508 259.471C969.143 246.389 941.152 242.59 915.974 249.202ZM964.923 261.722C967.596 262.847 973.503 265.239 978.004 267.067C988.132 270.866 998.259 279.869 1006.98 292.811C1017.11 307.722 1017.11 308.566 1008.81 311.098C993.336 315.6 978.286 317.85 967.736 317.288C958.453 316.584 956.624 316.866 951.982 319.82C945.793 323.759 944.668 324.04 945.793 321.086C946.637 318.554 945.512 314.756 943.683 314.756C942.98 314.756 941.152 316.022 939.604 317.569C935.947 321.226 932.571 321.086 920.756 317.006C904.721 311.379 900.501 317.428 915.27 324.743C921.881 327.979 924.835 328.26 945.934 327.557C949.029 327.557 954.936 326.853 959.297 326.009C970.971 323.899 1007.26 319.96 1007.96 320.804C1008.81 321.508 983.068 330.652 968.44 334.731C958.734 337.404 953.53 337.826 931.165 337.826C892.905 337.967 873.635 332.902 866.883 320.945C860.272 309.41 863.789 298.859 879.121 283.385C888.686 273.96 897.969 268.474 904.299 268.333C906.268 268.333 909.222 267.067 910.91 265.379C916.958 259.752 923.569 258.346 942.418 259.049C953.952 259.33 961.688 260.315 964.923 261.722ZM1025.41 340.921C1025.41 343.734 1018.8 351.893 1014.29 354.707C1007.82 358.927 978.145 368.915 966.33 371.165C961.266 372.009 947.763 372.853 936.088 372.853C917.38 372.994 912.457 372.431 893.187 368.352C881.231 365.82 868.993 363.147 866.18 362.444C860.976 361.037 858.444 358.083 856.053 350.346L855.068 347.251L863.226 350.486C867.727 352.315 879.262 355.691 888.967 357.801C904.721 361.459 909.081 361.881 930.462 361.881C946.919 361.74 958.453 361.037 967.314 359.349C983.771 356.254 1008.95 348.236 1016.26 343.593C1021.75 340.217 1025.41 339.233 1025.41 340.921ZM1010.64 384.529C1009.37 391.282 1005.15 395.783 995.446 400.285C966.048 414.211 900.642 411.257 876.026 394.939C869.556 390.719 868.712 389.734 862.242 378.762C858.866 373.135 858.866 373.135 866.18 380.59C880.527 395.361 899.798 401.129 933.978 401.129C953.108 401.129 957.468 400.566 969.846 397.33C986.163 392.829 1003.46 385.092 1005.57 381.153C1007.82 376.933 1006.14 376.652 997.556 379.606C977.02 386.78 956.202 390.719 938.901 390.859C923.147 391 899.094 388.327 885.029 384.811C879.262 383.404 861.257 372.853 862.523 371.728C862.804 371.306 867.446 372.291 872.651 373.838C897.125 380.872 927.648 383.967 953.389 382.138C970.549 381.012 993.899 376.089 1004.87 371.165L1010.64 368.774L1011.06 374.401C1011.34 377.496 1011.2 382.138 1010.64 384.529Z" fill="#F7F7F7"/>
<path d="M924.695 264.254C924.273 265.098 924.413 266.364 925.257 267.208C927.367 269.318 931.728 267.912 932.29 265.098C932.712 263.41 931.868 262.707 929.196 262.707C927.226 262.707 925.257 263.41 924.695 264.254Z" fill="#F7F7F7"/>
<path d="M950.857 265.098C950.857 269.6 955.499 272.835 961.266 272.272L966.33 271.85L963.095 268.052C961.407 265.801 957.89 263.691 955.499 263.269C951.56 262.425 950.857 262.707 950.857 265.098Z" fill="#F7F7F7"/>
<path d="M917.38 277.759C914.286 279.025 912.598 283.526 914.286 286.621C916.255 290.419 919.349 290.138 922.022 286.058C923.85 283.386 923.991 281.979 922.725 279.728C921.178 276.774 920.475 276.493 917.38 277.759Z" fill="#F7F7F7"/>
<path d="M891.921 281.135C889.53 283.386 888.967 285.355 889.248 289.153C889.811 296.328 894.312 296.468 896.844 289.435C900.642 279.025 898.391 275.227 891.921 281.135Z" fill="#F7F7F7"/>
<path d="M938.198 280.994C936.51 284.089 937.495 289.435 939.604 289.435C941.292 289.435 946.637 282.401 946.637 280.15C946.637 277.055 939.886 277.759 938.198 280.994Z" fill="#F7F7F7"/>
<path d="M961.547 283.245C960.281 286.34 963.095 289.435 967.174 289.435C970.831 289.435 971.393 287.887 969.143 283.667C967.314 280.432 962.673 280.15 961.547 283.245Z" fill="#F7F7F7"/>
<path d="M984.756 285.074C981.521 291.123 984.615 296.328 991.367 296.468C993.899 296.468 994.462 295.624 994.462 292.529C994.462 288.872 992.352 285.777 987.851 283.245C986.866 282.682 985.459 283.526 984.756 285.074Z" fill="#F7F7F7"/>
<path d="M946.497 293.092C944.949 295.061 945.09 295.624 947.341 297.312C950.857 299.844 953.53 299.844 954.514 297.172C955.499 294.78 952.826 290.841 950.154 290.841C949.169 290.841 947.481 291.826 946.497 293.092Z" fill="#F7F7F7"/>
<path d="M974.347 301.814C972.941 303.22 971.956 306.175 971.956 308.144C971.956 311.239 972.659 311.942 975.473 311.942C979.27 311.942 981.38 307.3 979.692 302.236C978.567 298.578 977.301 298.578 974.347 301.814Z" fill="#F7F7F7"/>
<path d="M899.095 303.783C899.798 305.893 903.033 306.315 903.174 304.205C903.174 303.361 902.189 302.517 900.782 302.377C899.376 301.954 898.673 302.517 899.095 303.783Z" fill="#F7F7F7"/>
<path d="M922.303 303.08C920.193 305.049 921.459 306.315 925.538 306.315C928.633 306.315 929.477 305.752 928.914 304.205C928.07 302.095 923.991 301.392 922.303 303.08Z" fill="#F7F7F7"/>
<path d="M878.699 310.113C876.73 311.942 877.855 314.896 880.949 316.022C885.451 317.71 886.576 316.444 883.763 312.646C881.09 308.988 880.106 308.566 878.699 310.113Z" fill="#F7F7F7"/>
<path d="M485.837 252.156C468.818 254.407 455.596 258.627 444.624 265.098C427.323 275.367 413.679 292.811 413.539 304.909C413.539 310.676 412.835 311.802 406.928 315.881C401.301 319.82 400.176 325.306 402.004 337.826C403.692 348.658 407.209 354.425 411.569 353.441C413.539 353.019 415.789 354.285 418.884 357.661C428.308 367.649 445.328 372.994 477.398 376.089C494.418 377.777 501.591 377.918 513.407 376.652C545.336 373.135 566.998 366.805 577.829 357.661C580.361 355.551 582.752 354.003 583.033 354.425C583.314 354.707 582.611 359.068 581.486 364.273L579.376 373.557L575.015 371.447C571.077 369.477 570.514 369.477 567.139 372.291C555.745 381.435 526.629 388.468 500.044 388.468C484.571 388.468 480.914 387.906 456.721 381.716C436.747 376.652 428.87 375.245 424.791 375.948C419.306 376.933 419.306 376.792 417.758 371.025C415.93 364.273 411.991 359.771 407.771 359.771C404.958 359.771 404.818 360.334 405.521 367.789C406.928 381.857 409.037 386.639 416.914 394.236C425.917 402.817 438.576 409.147 456.721 414.211C469.521 417.728 472.475 418.01 497.231 418.01C521.706 417.869 525.222 417.588 537.881 414.211C561.231 407.881 576.281 399.722 582.33 390.016C586.268 383.685 592.317 354.707 590.629 350.346C589.644 347.814 590.066 346.548 592.176 344.719C598.506 339.233 596.677 324.603 588.659 316.584C584.862 312.786 584.44 311.661 585.987 310.395C589.363 307.581 588.097 301.251 582.892 293.514C575.719 282.964 573.328 280.432 561.512 271.569C549.275 262.285 534.646 255.392 520.862 252.297C509.328 249.765 503.701 249.624 485.837 252.156ZM520.862 264.113C541.96 269.881 563.481 284.23 570.514 297.172C572.624 300.97 575.156 305.19 576.281 306.456C578.11 308.566 577.407 309.41 570.092 313.771C560.95 319.117 548.29 323.477 534.506 325.728C517.626 328.682 489.073 330.511 477.539 329.667C465.02 328.542 438.717 321.789 430.277 317.428C425.354 315.037 424.791 314.193 424.791 309.41C424.791 306.597 426.057 301.673 427.464 298.578C431.402 289.997 445.046 277.337 455.736 272.413C460.8 270.022 466.567 267.208 468.536 266.083C478.664 260.597 504.545 259.612 520.862 264.113ZM575.297 322.493C571.218 327.416 557.714 333.184 536.615 339.233C504.545 348.236 503.139 348.376 474.725 342.187C452.642 337.545 419.587 327.838 420.993 326.572C421.275 326.291 427.745 327.979 435.481 330.23C453.486 335.857 458.971 336.982 476.695 338.529C508.343 341.484 552.651 334.731 568.264 324.743C575.297 320.101 577.969 319.398 575.297 322.493ZM561.231 386.78C555.323 391.704 538.585 399.019 528.176 401.41C512.422 404.927 481.055 405.63 467.13 402.817C448.703 399.019 433.231 392.266 433.231 387.906C433.231 386.358 437.029 386.921 457.143 391.704C489.776 399.441 536.334 396.346 558.418 385.092C564.466 381.997 566.013 382.982 561.231 386.78Z" fill="#F7F7F7"/>
<path d="M494.136 269.318C493.152 269.6 492.308 270.866 492.308 271.85C492.308 274.101 497.653 278.181 500.325 278.181C502.998 278.181 502.576 273.398 499.622 270.725C496.809 268.193 496.809 268.193 494.136 269.318Z" fill="#F7F7F7"/>
<path d="M469.24 271.991C465.723 275.367 466.989 279.728 472.334 282.823C474.866 284.37 477.257 285.214 477.539 284.933C478.242 284.23 473.741 271.85 472.334 270.444C471.912 270.022 470.506 270.725 469.24 271.991Z" fill="#F7F7F7"/>
<path d="M521.143 275.367C519.736 277.618 521.424 281.557 524.8 283.526C528.879 286.199 530.989 283.808 529.301 278.603C527.895 274.523 522.972 272.413 521.143 275.367Z" fill="#F7F7F7"/>
<path d="M542.945 285.918C539.851 289.575 542.383 292.529 548.15 291.967C555.183 291.404 556.167 287.606 549.837 285.355C544.352 283.526 545.055 283.386 542.945 285.918Z" fill="#F7F7F7"/>
<path d="M446.453 288.731C445.89 291.263 446.172 293.233 447.578 294.499C449.407 296.327 450.11 296.187 453.064 293.795C455.877 291.544 456.158 290.56 454.892 288.45C452.361 284.229 447.578 284.37 446.453 288.731Z" fill="#F7F7F7"/>
<path d="M503.561 292.248C503.561 294.077 504.545 295.062 506.374 295.062C509.75 295.062 510.172 291.545 506.936 290.279C503.701 289.013 503.561 289.153 503.561 292.248Z" fill="#F7F7F7"/>
<path d="M486.119 294.639C485.415 296.187 485.978 297.734 487.525 298.86C490.76 301.251 492.308 301.11 492.308 298.719C492.308 292.811 487.947 289.857 486.119 294.639Z" fill="#F7F7F7"/>
<path d="M517.204 295.484C516.36 297.875 518.752 300.688 521.565 300.688C524.237 300.688 523.112 294.499 520.299 293.936C519.033 293.655 517.626 294.358 517.204 295.484Z" fill="#F7F7F7"/>
<path d="M469.24 296.187C468.818 296.89 469.802 298.719 471.349 300.125C474.303 302.798 474.303 302.798 473.881 299.422C473.319 295.905 470.646 293.936 469.24 296.187Z" fill="#F7F7F7"/>
<path d="M437.732 311.098C436.466 313.911 436.606 314.615 438.294 315.318C441.53 316.584 441.67 316.444 441.67 311.942C441.67 306.878 439.842 306.456 437.732 311.098Z" fill="#F7F7F7"/>
<path d="M548.571 309.691C548.571 313.208 550.259 316.162 552.228 316.162C554.62 316.162 554.76 311.661 552.51 309.41C550.259 307.159 548.571 307.3 548.571 309.691Z" fill="#F7F7F7"/>
<path d="M458.128 312.927C456.299 314.615 457.143 317.569 459.253 317.569C460.378 317.569 461.363 316.303 461.363 314.756C461.363 311.942 459.815 311.098 458.128 312.927Z" fill="#F7F7F7"/>
<path d="M509.187 314.615C509.187 316.303 509.89 317.569 510.593 317.569C511.437 317.569 512 316.725 512 315.6C512 314.474 511.437 313.068 510.593 312.646C509.89 312.224 509.187 313.068 509.187 314.615Z" fill="#F7F7F7"/>
<path d="M528.879 315.459C528.879 317.428 529.582 318.976 530.286 318.976C531.13 318.976 531.692 317.428 531.692 315.459C531.692 313.49 531.13 311.942 530.286 311.942C529.582 311.942 528.879 313.49 528.879 315.459Z" fill="#F7F7F7"/>
<path d="M476.413 314.334C474.585 316.022 475.429 320.383 477.398 320.383C480.07 320.383 481.336 318.413 480.211 315.6C479.226 313.208 477.961 312.786 476.413 314.334Z" fill="#F7F7F7"/>
<path d="M1368.62 257.08C1367.49 259.331 1367.77 260.175 1370.58 262.003C1375.23 265.098 1379.02 264.254 1379.59 260.034C1380.43 254.266 1371.43 251.734 1368.62 257.08Z" fill="#F7F7F7"/>
<path d="M1398.15 255.673C1393.65 256.799 1392.53 261.3 1396.75 261.3C1400.26 261.3 1405.19 258.909 1405.19 257.221C1405.19 255.392 1402.09 254.688 1398.15 255.673Z" fill="#F7F7F7"/>
<path d="M51.622 258.065C49.6528 260.034 50.7781 261.159 57.2484 263.269C65.4066 266.083 68.7825 266.083 69.7671 263.41C71.3143 259.471 67.5165 257.08 59.7803 257.08C55.8418 257.08 52.044 257.502 51.622 258.065Z" fill="#F7F7F7"/>
<path d="M1402.66 262.144C1398.72 266.645 1404.91 271.991 1409.13 267.771C1410.95 265.942 1411.09 264.957 1409.97 262.988C1407.86 259.753 1404.91 259.471 1402.66 262.144Z" fill="#F7F7F7"/>
<path d="M3.37571 264.254C1.96911 266.645 7.03285 269.881 11.2526 269.459C13.6438 269.178 14.7691 268.193 14.7691 266.223C14.7691 263.973 13.6438 263.269 9.56472 262.988C6.75153 262.707 4.079 263.269 3.37571 264.254Z" fill="#F7F7F7"/>
<path d="M1355.39 268.193C1354.13 269.459 1353.14 271.569 1353.14 272.835C1353.14 275.789 1362.43 280.713 1364.4 278.743C1366.51 276.633 1364.54 272.554 1361.58 272.554C1359.75 272.554 1359.19 271.71 1359.75 269.881C1360.74 266.223 1358.21 265.098 1355.39 268.193Z" fill="#F7F7F7"/>
<path d="M1335.7 272.835C1332.61 277.196 1332.89 281.416 1336.4 283.526C1340.48 286.199 1342.17 284.089 1341.61 276.774C1341.19 269.74 1338.94 268.193 1335.7 272.835Z" fill="#F7F7F7"/>
<path d="M1382.96 272.554C1380.71 276.211 1380.85 278.884 1383.38 280.994C1387.46 284.37 1394.07 275.789 1390.28 271.991C1387.32 269.037 1385.07 269.178 1382.96 272.554Z" fill="#F7F7F7"/>
<path d="M1436.41 272.554C1434.73 273.257 1432.9 274.805 1432.47 276.071C1431.35 278.884 1434.3 282.401 1437.68 282.401C1439.79 282.401 1440.35 281.275 1440.35 276.774C1440.35 273.679 1440.21 271.147 1440.07 271.288C1439.79 271.288 1438.24 271.85 1436.41 272.554Z" fill="#F7F7F7"/>
<path d="M88.0528 276.211C85.099 279.165 85.099 279.165 90.444 282.401C98.7429 287.606 102.963 284.511 97.6176 277.055C95.0858 273.398 91.1473 273.116 88.0528 276.211Z" fill="#F7F7F7"/>
<path d="M1411.8 275.93C1410.39 279.306 1412.22 282.401 1416.02 283.245C1420.52 284.37 1421.5 283.245 1419.82 278.462C1418.27 274.101 1413.06 272.554 1411.8 275.93Z" fill="#F7F7F7"/>
<path d="M35.3056 277.899C34.321 279.869 34.7429 281.416 37.1341 284.37C40.088 288.169 40.3693 288.169 42.6199 286.058C43.8858 284.652 45.0111 282.542 45.0111 281.135C45.0111 275.649 37.8374 273.257 35.3056 277.899Z" fill="#F7F7F7"/>
<path d="M61.1868 279.447C59.9209 281.698 61.6088 283.808 64.844 283.808C66.8132 283.808 67.5165 282.964 67.2352 281.416C66.6725 278.603 62.5934 277.337 61.1868 279.447Z" fill="#F7F7F7"/>
<path d="M13.5033 285.496C10.6901 287.043 10.5495 289.997 13.222 292.107C15.8945 294.358 21.0989 291.685 21.0989 288.168C21.0989 285.074 16.8792 283.667 13.5033 285.496Z" fill="#F7F7F7"/>
<path d="M1395.34 285.918C1393.93 287.606 1393.93 288.45 1395.34 290.138C1396.33 291.263 1397.87 292.248 1398.86 292.248C1399.84 292.248 1401.39 291.263 1402.37 290.138C1403.78 288.45 1403.78 287.606 1402.37 285.918C1401.39 284.792 1399.84 283.808 1398.86 283.808C1397.87 283.808 1396.33 284.792 1395.34 285.918Z" fill="#F7F7F7"/>
<path d="M0 291.685C0 294.358 0.562637 296.327 1.12527 295.905C2.25055 295.202 1.68791 286.621 0.562637 286.621C0.281319 286.621 0 288.872 0 291.685Z" fill="#F7F7F7"/>
<path d="M77.0812 289.575C73.7054 291.545 73.8461 294.499 77.5032 295.483C81.8636 296.609 84.5362 295.061 84.1142 291.685C83.6922 288.309 80.5977 287.465 77.0812 289.575Z" fill="#F7F7F7"/>
<path d="M1358.21 289.153C1356.66 290.701 1357.36 295.062 1359.19 295.062C1361.16 295.062 1364.4 292.389 1364.4 290.701C1364.4 289.435 1359.19 288.169 1358.21 289.153Z" fill="#F7F7F7"/>
<path d="M1425.02 289.856C1422.91 291.967 1423.05 296.046 1425.3 296.749C1427.83 297.734 1433.74 295.905 1434.3 294.077C1435.15 291.545 1427.13 287.746 1425.02 289.856Z" fill="#F7F7F7"/>
<path d="M54.8571 294.358C52.4659 297.312 54.4351 299.282 59.9208 299.282C64.8439 299.282 66.1098 297.031 63.0153 293.936C60.7648 291.685 56.967 291.826 54.8571 294.358Z" fill="#F7F7F7"/>
<path d="M1372.13 299.844C1370.73 301.814 1369.88 303.783 1370.16 304.065C1375.93 308.707 1388.31 310.676 1388.31 306.878C1388.31 305.049 1387.32 304.768 1383.38 305.471C1379.16 306.315 1378.46 306.034 1378.46 303.783C1378.46 302.376 1377.62 299.985 1376.49 298.578C1374.66 296.046 1374.52 296.187 1372.13 299.844Z" fill="#F7F7F7"/>
<path d="M1325.01 299.844C1325.01 300.829 1326 302.517 1327.12 303.502C1329.37 305.33 1329.93 303.924 1328.39 300.126C1327.26 297.312 1325.01 297.171 1325.01 299.844Z" fill="#F7F7F7"/>
<path d="M101.978 300.688C102.541 301.532 103.525 301.814 104.229 301.392C106.198 300.126 105.776 299.281 103.244 299.281C102.119 299.281 101.556 299.985 101.978 300.688Z" fill="#F7F7F7"/>
<path d="M1344.7 301.251C1344.7 303.783 1348.36 306.878 1349.49 305.049C1350.75 303.08 1348.92 299.281 1346.67 299.281C1345.55 299.281 1344.7 300.126 1344.7 301.251Z" fill="#F7F7F7"/>
<path d="M1402.65 303.783C1399.7 306.737 1400.83 309.129 1405.05 309.129C1409.97 309.129 1412.92 306.175 1410.53 303.783C1408.42 301.673 1404.76 301.673 1402.65 303.783Z" fill="#F7F7F7"/>
<path d="M27.1472 308.566C26.1626 308.988 25.3186 311.239 25.3186 313.489C25.3186 317.991 26.8659 318.554 33.0549 316.162C37.9779 314.333 37.556 308.566 32.3516 308.144C30.3823 308.003 27.9911 308.285 27.1472 308.566Z" fill="#F7F7F7"/>
<path d="M0 313.208C0 316.162 0.703297 317.569 2.10989 317.569C3.23516 317.569 4.21978 316.444 4.21978 314.896C4.21978 313.49 3.23516 311.52 2.10989 310.535C0.281319 308.988 0 309.41 0 313.208Z" fill="#F7F7F7"/>
<path d="M51.0594 312.786C50.2154 315.178 52.7473 317.569 56.5451 317.569C60.2022 317.569 61.1868 314.615 58.3736 312.364C54.8572 309.973 52.1846 309.973 51.0594 312.786Z" fill="#F7F7F7"/>
<path d="M1320.79 393.251C1320.79 397.752 1334.43 403.52 1355.39 407.6C1376.63 411.82 1401.67 411.679 1423.47 407.318L1439.65 404.083L1440.07 399.441C1440.35 397.049 1440.07 394.939 1439.37 394.939C1438.8 394.939 1434.44 395.502 1429.8 396.346C1409.69 399.441 1390 400.425 1371.43 399.019C1353.99 397.893 1329.23 394.517 1323.32 392.688C1321.92 392.266 1320.79 392.548 1320.79 393.251Z" fill="#F7F7F7"/>
</g>
<defs>
<clipPath id="clip0_85_2">
<rect width="1440" height="460" fill="white"/>
</clipPath>
</defs>
</svg>
