<svg width="28" height="26" viewBox="0 0 28 26" fill="none" xmlns="http://www.w3.org/2000/svg">
<path d="M5.40368 19.3779C5.08561 19.3779 4.81899 19.2786 4.60382 19.08C4.38865 18.8813 4.28107 18.6352 4.28107 18.3416C4.28107 18.048 4.38865 17.8019 4.60382 17.6033C4.81899 17.4047 5.08561 17.3054 5.40368 17.3054H23.3655C23.6836 17.3054 23.9502 17.4047 24.1654 17.6033C24.3805 17.8019 24.4881 18.048 24.4881 18.3416C24.4881 18.6352 24.3805 18.8813 24.1654 19.08C23.9502 19.2786 23.6836 19.3779 23.3655 19.3779H5.40368ZM5.40368 14.1966C5.08561 14.1966 4.81899 14.0973 4.60382 13.8987C4.38865 13.7 4.28107 13.4539 4.28107 13.1603C4.28107 12.8667 4.38865 12.6206 4.60382 12.422C4.81899 12.2234 5.08561 12.1241 5.40368 12.1241H23.3655C23.6836 12.1241 23.9502 12.2234 24.1654 12.422C24.3805 12.6206 24.4881 12.8667 24.4881 13.1603C24.4881 13.4539 24.3805 13.7 24.1654 13.8987C23.9502 14.0973 23.6836 14.1966 23.3655 14.1966H5.40368ZM5.40368 9.01528C5.08561 9.01528 4.81899 8.91598 4.60382 8.71736C4.38865 8.51874 4.28107 8.27263 4.28107 7.97902C4.28107 7.68542 4.38865 7.43931 4.60382 7.24069C4.81899 7.04207 5.08561 6.94276 5.40368 6.94276H23.3655C23.6836 6.94276 23.9502 7.04207 24.1654 7.24069C24.3805 7.43931 24.4881 7.68542 24.4881 7.97902C24.4881 8.27263 24.3805 8.51874 24.1654 8.71736C23.9502 8.91598 23.6836 9.01528 23.3655 9.01528H5.40368Z" fill="#F7F7F7"/>
</svg>
