<svg width="80" height="74" viewBox="0 0 80 74" fill="none" xmlns="http://www.w3.org/2000/svg">
<path d="M37.0922 0.110847C36.9362 0.183594 36.6951 0.372734 36.5532 0.532768C36.3121 0.794647 36.2979 2.46777 36.2837 36.745L36.2695 72.6808L36.5674 73.19C37.1206 74.092 38.2128 74.2666 39.0639 73.5828C39.8014 72.9863 39.7873 73.19 39.8582 64.3588L39.9291 56.0805L40.4965 56.5897C41.7022 57.6954 44.3972 59.354 46.1135 60.0523C47.688 60.6779 49.2057 61.0416 51.2199 61.2453C56.9788 61.8127 62.3546 60.1105 66.7944 56.3132C70.7093 52.9815 72.7093 49.999 74.0426 45.5471C74.7234 43.2338 74.8227 42.3899 74.8227 38.68C74.8086 35.4501 74.7944 35.1882 74.4256 33.7915C73.2341 29.1941 71.6029 26.0661 68.5107 22.5452C66.6951 20.4502 63.2057 18.006 60.3972 16.8566C57.0781 15.5036 53.149 15.0671 49.7022 15.6782C46.9646 16.1728 45.6738 16.6529 43.3334 18.0642C42.5532 18.5298 41.7305 19.0244 41.5178 19.1554C41.2908 19.3008 40.8227 19.6209 40.4823 19.8828L39.8582 20.3629V10.7606V1.17292L39.5178 0.750999C39.0071 0.125397 37.8156 -0.18013 37.0922 0.110847ZM56.2128 20.3629C59.0071 20.9303 61.2341 22.0651 63.9007 24.2475C65.4468 25.5132 65.7164 25.7751 66.766 27.1864C68.2695 29.2086 69.149 30.9545 69.8298 33.3696C70.5107 35.7266 70.6383 36.5267 70.7376 38.8255C70.7944 40.4695 70.766 41.0224 70.5107 42.2736C69.7731 45.9399 68.1844 48.9515 65.6738 51.4539C63.0781 54.0582 60.2695 55.5712 56.4398 56.4005C53.1773 57.1134 50.6241 56.8952 47.5178 55.6003C44.5532 54.3637 42.539 52.7342 40.5249 49.8972L39.8582 48.9806V44.7905V40.5859L40.3405 40.6732C41.4752 40.8623 42.6951 40.3822 42.6951 39.7566C42.6951 39.6402 42.5107 39.3347 42.2837 39.1019C41.9007 38.7091 41.7873 38.68 40.8653 38.68H39.8582V32.6713L39.8724 26.6626L41.1064 25.4114C42.2553 24.262 44.1844 22.7926 45.6738 21.9196C47.844 20.6684 51.3334 19.8683 53.9717 20.0283C54.4398 20.0574 55.4468 20.2029 56.2128 20.3629Z" fill="#F7F7F7"/>
<path d="M52.9077 21.9487L52.5531 22.2251L52.5106 29.7324C52.468 37.1814 52.468 37.2542 52.1702 37.6761C51.9432 37.9816 51.8439 38.3744 51.8014 39.0582L51.7446 40.0039L52.312 40.5568C53.3049 41.5315 54.2695 41.4879 55.2482 40.4258C55.617 40.033 55.6737 39.873 55.6595 39.1601C55.6595 38.4035 55.617 38.3162 55.0496 37.7779L54.4397 37.196L54.468 29.7615L54.4822 22.3415L54.1702 22.0069C53.7872 21.585 53.39 21.5704 52.9077 21.9487Z" fill="#F7F7F7"/>
<path d="M44.5816 24.7152C43.9575 24.9768 43.7589 25.9359 44.2411 26.3719C44.5958 26.7062 45.3192 26.7062 45.6738 26.3865C46.0426 26.0377 46.0426 25.2384 45.6738 24.8605C45.3759 24.5554 45.078 24.5118 44.5816 24.7152Z" fill="#F7F7F7"/>
<path d="M61.2624 24.715C61.1347 24.7877 60.9503 25.0493 60.851 25.2963C60.695 25.7033 60.695 25.7905 60.9503 26.1392C61.4609 26.8223 62.4113 26.4153 62.4113 25.5143C62.4113 24.7877 61.8297 24.3808 61.2624 24.715Z" fill="#F7F7F7"/>
<path d="M61.8583 31.2746C59.1348 33.9952 56.227 37.0214 56.0426 37.3706C55.9575 37.5161 55.9859 37.7779 56.0994 38.0689C56.2696 38.4763 56.3689 38.5345 56.8512 38.5345C57.4327 38.5345 57.8441 38.2726 58.8086 37.2978C59.1348 36.9778 60.3973 35.7265 61.6455 34.519C66.0427 30.2271 66.0994 30.1689 66.0994 29.7615C66.0994 29.2668 65.4895 28.7867 64.8653 28.7867C64.4114 28.7867 64.1278 29.0195 61.8583 31.2746Z" fill="#F7F7F7"/>
<path d="M64.2979 38.9293C63.9291 39.002 63.5461 39.4961 63.5461 39.8594C63.5461 40.0047 63.7164 40.2518 63.9433 40.4261C64.3121 40.7459 64.4114 40.7459 66.6383 40.6732C68.5816 40.6151 68.993 40.5569 69.2341 40.339C69.5887 40.0192 69.5745 39.4815 69.2199 39.1182C68.9646 38.8566 68.766 38.8276 66.7802 38.8421C65.5887 38.8566 64.4681 38.9002 64.2979 38.9293Z" fill="#F7F7F7"/>
<path d="M53.3332 41.8808C53.163 41.9972 53.1063 42.5791 53.0779 45.3725C53.0496 47.8022 53.0779 48.806 53.2056 48.9515C53.4467 49.2571 54.1418 49.2134 54.3262 48.8788C54.4822 48.5733 54.5389 42.3754 54.3829 41.9681C54.2836 41.7062 53.6737 41.6625 53.3332 41.8808Z" fill="#F7F7F7"/>
<path d="M44.5391 51.1937C44.383 51.3536 44.2554 51.6152 44.2554 51.7605C44.2554 52.0657 44.9362 52.647 45.2766 52.647C45.6171 52.647 45.9575 52.1529 45.9575 51.6442C45.9575 51.2809 45.8724 51.1501 45.5887 51.0484C45.0639 50.8449 44.8511 50.874 44.5391 51.1937Z" fill="#F7F7F7"/>
<path d="M61.0213 51.2205C60.922 51.3224 60.8511 51.6426 60.8511 51.9482C60.8511 52.3994 60.922 52.545 61.1915 52.6614C61.6738 52.8943 62.1844 52.7197 62.383 52.283C62.6099 51.7736 62.5958 51.6717 62.2695 51.3369C61.9575 51.0167 61.2908 50.944 61.0213 51.2205Z" fill="#F7F7F7"/>
<path d="M53.0497 53.0834C52.2412 53.9126 52.6809 55.5567 53.7164 55.5567C54.1277 55.5567 54.3263 55.1493 54.3263 54.2909C54.3263 53.1561 53.6313 52.4869 53.0497 53.0834Z" fill="#F7F7F7"/>
<path d="M30.6383 1.30385C26.1844 1.71121 21.8724 2.72964 18.3688 4.18452C13.688 6.14863 9.81563 8.92747 6.53903 12.7102C4.92201 14.5724 3.95747 15.9982 3.07804 17.8168C2.31208 19.4027 2.24116 19.6064 1.70215 21.4395C1.2057 23.1417 1.14896 24.2911 1.53194 24.9313L1.80144 25.3677L1.21988 25.6733C-0.39714 26.5171 -0.411324 29.3396 1.2057 30.1689C1.51775 30.3289 1.80144 30.4744 1.82981 30.4889C1.844 30.5035 1.68797 30.7654 1.44683 31.0709C0.241158 32.6422 0.581584 34.8536 2.19861 36.1339L2.76598 36.5704L2.42556 37.2687C2.08513 37.9962 1.87236 39.6256 2.02839 40.3094C2.17024 40.8769 2.76598 41.4443 3.23407 41.4443H3.6596L3.78726 42.8555C3.87236 43.6411 3.90073 44.3249 3.87236 44.3831C3.844 44.4559 3.4752 44.4995 3.06385 44.4995C1.97166 44.4995 1.56031 44.8632 1.56031 45.8235C1.56031 46.58 2.22697 48.1949 2.58158 48.3113C2.69506 48.355 2.62414 48.5296 2.383 48.8787C1.77307 49.708 1.03548 51.3666 0.851087 52.2977C0.326265 55.0184 2.62414 58.1755 5.37591 58.5538C6.01421 58.6411 6.04258 58.6702 6.41137 59.4558C6.87946 60.4742 8.9362 62.7729 10.5532 64.0678C13.0922 66.1046 16.8936 68.2579 20.0426 69.4363C21.7589 70.091 24.2553 70.7603 26.3405 71.124C27.8156 71.3859 32.4397 71.8515 33.5603 71.8515H34.0426V70.6875V69.5236H32.5249C26.3546 69.5236 19.461 67.2977 13.617 63.4422C11.5603 62.0746 10.3121 60.9398 9.12059 59.3249C8.96456 59.1212 10.0426 59.1066 20.1135 59.1503C26.2553 59.1794 31.9007 59.2085 32.6809 59.2376L34.071 59.2812L33.9858 58.5392C33.9433 58.1464 33.9007 57.6081 33.9007 57.3608V56.9097L19.9717 56.8806C4.32626 56.8515 5.53194 56.9388 4.25534 55.7604C2.8369 54.451 2.76598 52.5451 4.07095 51.6285L4.59577 51.2648L14.6667 51.1484C20.2128 51.0902 26.8369 51.0611 29.4043 51.0902L34.0426 51.1338V48.6169V46.1145L33.5178 45.969C32.3263 45.6198 31.0639 45.9108 30.7518 46.5946C30.5674 47.031 30.4256 47.0747 30.2979 46.7546C30.2554 46.6237 29.8866 46.3618 29.4752 46.1726C28.0993 45.5179 26.383 45.8089 25.688 46.8128C25.5178 47.0601 25.3192 47.2638 25.2483 47.2638C24.9929 47.2638 21.617 45.227 20.9929 44.7032C19.6312 43.5393 17.8582 43.001 15.4327 42.9864C14.2695 42.9719 13.7589 42.9137 13.7589 42.8119C13.7589 42.5645 17.149 42.4045 19.3901 42.5354C21.9291 42.6809 22.1277 42.8119 24.0142 45.678C24.2979 46.1145 24.6809 46.6237 24.8653 46.7983L25.1915 47.1183L25.9007 46.2163C26.9362 44.8923 27.2766 44.7469 29.0071 44.8632C30.5107 44.9796 30.6667 44.9796 32.7234 44.9069L34.0426 44.8632V44.1358C34.0426 43.7284 34 43.2483 33.9433 43.0592C33.8582 42.7391 33.8014 42.7246 33.1064 42.7973C32.6809 42.841 32.1986 42.9864 32.0284 43.1028C31.6312 43.3938 30.8936 43.3938 30.3688 43.1174C30.1419 43.001 29.4894 42.7391 28.922 42.5354C28.3405 42.3172 28.071 42.1863 28.2979 42.2299C28.539 42.2735 29.9149 42.3608 31.3901 42.419L34.0426 42.5063V41.6625V40.8187L33.5178 40.9059C32.7802 41.0223 16 41.0369 10.4256 40.935C7.9291 40.8769 5.73052 40.775 5.53194 40.7023C5.33336 40.6295 4.89364 40.2076 4.55322 39.7711C4.21279 39.3347 3.87236 38.9709 3.80144 38.9709C3.71634 38.9709 4.25534 37.8361 4.60995 37.2542C4.62414 37.2396 5.43265 37.6033 6.39719 38.0835C8.14187 38.9273 10.6525 39.8439 11.2199 39.8439C11.7305 39.8439 16.1135 38.258 17.9291 37.4288L19.6454 36.6286L21.2057 37.1378C22.0709 37.4142 23.5603 37.8798 24.539 38.1562C25.5178 38.4326 26.9504 38.8691 27.7447 39.1164C29.1064 39.5674 29.1915 39.582 29.5319 39.3492C29.9149 39.0873 31.7731 36.5122 32.1702 35.6829C32.4397 35.1446 32.6383 35.0718 32.9078 35.4065C33.0071 35.5229 33.1632 35.6247 33.2624 35.6247C33.3617 35.6247 33.5887 35.7847 33.7731 35.9739L34.1135 36.323L34.071 33.5151L34.0284 30.7072L33.5036 30.6344C32.4965 30.4598 12.9929 30.5035 12.9362 30.6635C12.8369 30.9836 11.3617 30.8236 9.75889 30.3144C6.55322 29.3105 6.09932 29.1504 6.09932 29.0631C6.09932 28.8886 15.1915 28.7722 24.6383 28.8158L34.0284 28.8595L34 27.8119L33.9717 26.7499H21.3475C7.53194 26.7499 7.91492 26.7644 6.00002 25.8769C3.58868 24.7567 3.24825 23.8837 4.19861 21.2504C5.36173 18.0642 6.73761 15.8236 9.13478 13.263C12.6951 9.43668 17.2908 6.68694 22.9504 4.98472C25.7022 4.16998 30.1277 3.47163 32.6241 3.47163H34.0426V2.39501C34.0426 1.66757 33.9858 1.30385 33.8724 1.2602C33.5745 1.14381 32.0851 1.1729 30.6383 1.30385ZM4.02839 27.39L5.13478 27.8701L4.45393 27.9865C4.07095 28.0447 3.53194 28.2048 3.23407 28.3648C2.5674 28.714 2.34045 28.714 1.98584 28.3503C1.63123 27.9865 1.7447 27.6955 2.39719 27.2591C2.68088 27.0699 2.90783 26.9099 2.92201 26.9099C2.92201 26.8954 3.43265 27.1136 4.02839 27.39ZM31.6596 33.6897C29.9717 36.4685 29.0213 37.9525 28.8936 37.9525C28.8227 37.9525 27.2199 37.4579 25.3475 36.8614C23.4752 36.2649 21.844 35.7702 21.7163 35.7556C21.5887 35.7556 21.7731 35.6683 22.1277 35.5665C22.4823 35.4647 23.0213 35.261 23.3334 35.1155C24.4114 34.6354 28.2979 33.2969 28.6241 33.2969C28.7944 33.2969 28.9788 33.195 29.0213 33.0786C29.0922 32.9041 29.3617 32.8604 30.4114 32.8895C31.1915 32.9041 31.8156 32.8459 31.9858 32.744C32.1419 32.6567 32.2837 32.5694 32.3121 32.5694C32.3263 32.5694 32.0426 33.0786 31.6596 33.6897ZM24.1135 33.2969C23.4468 33.5442 22.4256 33.9225 21.844 34.1698C21.2624 34.4026 20.0426 34.8827 19.149 35.2464C18.2553 35.5956 16.1277 36.4831 14.4256 37.2251L11.3334 38.5636L10.4256 38.2726C9.21988 37.8652 4.19861 35.4065 3.4752 34.8827C3.14896 34.6499 2.78017 34.2571 2.63832 34.0098C2.39719 33.5879 2.39719 33.5442 2.60995 33.326C2.82272 33.1077 3.87236 33.0786 13.8014 33.0059C19.8298 32.9622 24.8795 32.9186 25.0355 32.9041C25.1915 32.875 24.7802 33.0641 24.1135 33.2969ZM11.1064 42.6664C11.5461 42.8846 11.6312 43.001 11.6312 43.3793V43.8303L11.2341 43.4375C11.0071 43.2192 10.61 42.9719 10.3405 42.8991C9.68797 42.71 8.58159 42.8701 8.28371 43.2047C8.02839 43.4957 7.46102 43.5393 6.46811 43.3647C6.02839 43.2774 5.87236 43.1756 5.73052 42.8264L5.56031 42.3899H8.07095C10.2128 42.3899 10.6383 42.4336 11.1064 42.6664ZM25.3334 43.1174C25.8298 43.1901 25.9149 43.2629 25.8582 43.4957C25.7589 43.8739 25.4185 43.8448 24.7802 43.4084C24.2128 43.001 24.1135 42.841 24.5107 42.9573C24.6383 42.9864 25.0213 43.0592 25.3334 43.1174ZM16.227 44.7905L17.2057 45.1106L16.2979 45.4452C15.8014 45.6198 14.6951 46.0708 13.8298 46.4491C12.9788 46.8274 11.9858 47.2202 11.6312 47.322C11.2766 47.4384 10.8653 47.5693 10.7092 47.6275C10.4397 47.7294 10.4397 47.7294 10.6809 47.5257C11.0639 47.2347 10.9504 46.5655 10.4539 46.1872C10.1561 45.969 9.80144 45.8671 9.03549 45.838C8.08513 45.7944 7.94329 45.8235 6.80854 46.3909C5.53194 47.0456 4.49648 47.1911 3.82981 46.8274C3.54612 46.6673 3.53194 46.6382 3.75889 46.3909C4.32627 45.7507 6.90783 45.0524 8.79435 45.0378C9.95747 45.0233 10.8511 45.4743 11.2766 46.289C11.4327 46.58 11.6312 46.8274 11.7163 46.8274C12.0142 46.8274 12.9929 45.8235 13.4043 45.0815L13.8298 44.3395L14.539 44.4122C14.9362 44.4413 15.688 44.6159 16.227 44.7905ZM19.1915 47.9767C19.4327 48.224 16.9646 48.2968 16.0426 48.0786C15.5461 47.9622 15.1348 47.8458 15.1064 47.8167C15.078 47.7876 15.9575 47.7876 17.0639 47.8167C18.1702 47.8458 19.1348 47.9185 19.1915 47.9767Z" fill="#F7F7F7"/>
<path d="M25.064 6.7306C25.0214 6.83244 24.9505 7.28346 24.8938 7.71993C24.8086 8.37463 24.8512 8.62196 25.0923 9.13117C25.3618 9.65493 25.4611 9.72768 25.8725 9.72768C26.2413 9.72768 26.454 9.61129 26.7235 9.27666C27.1774 8.7238 27.1916 8.31643 26.7661 7.82177C26.2838 7.23981 25.1491 6.51237 25.064 6.7306ZM26.0569 7.67628C26.681 8.08365 26.7803 8.50557 26.3406 8.97113C25.7448 9.56764 25.2484 9.07298 25.2484 7.89451C25.2484 7.32711 25.4044 7.28346 26.0569 7.67628Z" fill="#F7F7F7"/>
<path d="M30.7377 7.03567C30.454 7.29766 30.2129 7.5742 30.2129 7.64697C30.2129 7.70519 30.4257 7.87985 30.6668 8.0254C31.1207 8.28739 31.1349 8.28739 31.376 7.98174C31.6739 7.60331 31.7023 7.13755 31.4469 6.78823C31.2767 6.58446 31.22 6.59902 30.7377 7.03567Z" fill="#F7F7F7"/>
<path d="M51.4185 8.30192C50.8937 8.72384 50.6526 9.37854 50.5391 10.6734L50.454 11.7646H49.6455C48.4398 11.7646 48.1845 12.0264 48.1136 13.3358C48.0568 14.3543 48.0568 14.3688 48.4398 14.4707C48.6526 14.5289 49.915 14.4852 51.2483 14.3979C52.5959 14.2961 54.4398 14.2088 55.3618 14.1942C56.7802 14.1651 57.0356 14.1942 57.0923 14.3979C57.149 14.5725 57.4327 14.6598 58.1987 14.7325C58.7519 14.7762 59.3902 14.8635 59.6171 14.9071L60.0001 14.9944V13.5977V12.201H57.5888C56.071 12.201 55.1774 12.1428 55.1774 12.0555C55.1774 11.9682 55.6881 11.91 56.4256 11.91C57.1207 11.91 58.1703 11.8664 58.7661 11.8228L59.8583 11.7209V10.5425C59.8583 9.3058 59.6029 8.5929 59.0498 8.30192C58.9079 8.22918 57.22 8.12734 55.2909 8.08369C51.8724 7.9964 51.7873 7.9964 51.4185 8.30192Z" fill="#F7F7F7"/>
<path d="M20.8652 10.4115C20.4255 11.0226 20 12.0992 20 12.5939C20 12.8994 20.9929 12.6812 21.3901 12.2883C21.844 11.8373 21.9716 10.5279 21.6028 10.0624L21.3475 9.75683L20.8652 10.4115ZM21.4184 11.0953C21.4184 11.5027 20.922 12.201 20.6241 12.201C20.4681 12.201 20.4397 12.0992 20.5106 11.7937C20.7376 10.8916 21.4184 10.3533 21.4184 11.0953Z" fill="#F7F7F7"/>
<path d="M32.6809 10.8066C32.5674 11.0973 32.9362 11.9837 33.3759 12.536C33.6596 12.8848 33.7164 12.8993 33.9575 12.7104C34.2979 12.4488 34.1703 12.1727 33.3192 11.199C32.8795 10.6904 32.7518 10.6177 32.6809 10.8066Z" fill="#F7F7F7"/>
<path d="M13.4752 13.234C12.9504 13.9905 12.695 14.8344 12.9504 14.9944C13.2908 15.2127 13.5461 15.0963 13.9291 14.5434C14.2695 14.0342 14.2837 13.9178 14.156 13.3067C14.0851 12.943 14 12.6375 13.9574 12.6375C13.9291 12.6375 13.7163 12.9139 13.4752 13.234Z" fill="#F7F7F7"/>
<path d="M23.8015 14.9071C23.3334 15.8382 23.2909 16.5366 23.7022 17.0604C24.071 17.5405 24.5816 17.555 25.0355 17.0749C25.5462 16.5657 25.532 15.46 25.0214 14.8344C24.3547 14.0196 24.227 14.0342 23.8015 14.9071ZM24.7944 15.1399C25.0072 15.3581 25.0214 16.1874 24.8228 16.5802C24.6242 16.944 24.3263 16.9294 24.0568 16.5366C23.4894 15.7073 24.1561 14.4852 24.7944 15.1399Z" fill="#F7F7F7"/>
<path d="M17.6172 15.1127C17.1066 15.4324 16.6527 16.2608 16.7803 16.6386C16.8512 16.813 17.0214 16.8566 17.4612 16.8275C18.1846 16.7694 18.5675 16.3334 18.681 15.4324C18.7519 14.8657 18.7378 14.8221 18.4257 14.8221C18.2413 14.8221 17.8725 14.9529 17.6172 15.1127ZM18.1562 15.6213C18.1562 15.912 17.4895 16.6096 17.3193 16.5078C17.1775 16.4061 17.2768 15.8539 17.4895 15.5778C17.6739 15.3307 18.1562 15.3598 18.1562 15.6213Z" fill="#F7F7F7"/>
<path d="M28.8511 15.329C28.61 16.3183 29.3476 17.7878 30.0426 17.7005C30.3405 17.6714 30.4398 17.5695 30.4681 17.2349C30.5391 16.5802 30.383 16.1728 29.844 15.5472C29.2483 14.878 28.9788 14.8198 28.8511 15.329ZM29.9291 16.2892C30.0142 16.4347 30.071 16.6821 30.071 16.8566C30.071 17.0894 30.0001 17.1622 29.7589 17.1185C29.4894 17.0894 29.4185 16.973 29.3901 16.4638C29.3476 15.9401 29.3901 15.8528 29.5745 15.9255C29.688 15.9837 29.8582 16.1438 29.9291 16.2892Z" fill="#F7F7F7"/>
<path d="M66.071 18.0642C65.7022 18.3116 65.3901 18.5734 65.3901 18.6316C65.3901 18.6898 65.8157 19.0972 66.3547 19.5482C68.9646 21.8033 71.8724 25.1786 73.5036 27.8411C74.0994 28.8304 74.227 28.8741 74.9646 28.4812C75.3192 28.2921 75.6029 28.0593 75.6029 27.9866C75.6029 27.6665 73.8724 24.7713 73.0923 23.7965C71.3618 21.5996 67.3192 17.5841 66.8511 17.5841C66.7944 17.5841 66.4398 17.8023 66.071 18.0642Z" fill="#F7F7F7"/>
<path d="M72.2696 19.8537C71.5178 20.552 71.4611 20.6393 71.6455 20.8867C71.759 21.0322 72.2412 21.6287 72.7377 22.2252C73.22 22.8217 73.6171 23.3745 73.6171 23.4618C73.6171 23.5491 73.9575 23.2581 74.3689 22.8071C74.7661 22.3561 75.2058 21.9633 75.3192 21.9196C75.532 21.8469 75.4753 21.7742 73.759 19.8246L73.1065 19.0826L72.2696 19.8537Z" fill="#F7F7F7"/>
<path d="M31.6314 19.6958C31.6314 20.0446 32.0853 21.1345 32.3406 21.4252C32.5392 21.6286 32.6526 21.6577 32.8796 21.5269C33.0356 21.4397 33.3051 21.367 33.4612 21.367C34.1704 21.367 33.376 20.1899 32.369 19.7539C31.6172 19.4197 31.6314 19.4197 31.6314 19.6958Z" fill="#F7F7F7"/>
<path d="M9.20575 20.2174C9.10646 20.4211 9.07809 20.7848 9.14902 21.2067C9.20575 21.5704 9.26249 22.1378 9.27668 22.4579C9.29086 23.1563 9.40433 23.2581 10.1561 23.2581C11.6171 23.2581 11.532 21.4977 10.0284 20.3774L9.37597 19.8973L9.20575 20.2174ZM10.4114 21.5268C10.993 22.2251 10.8653 22.8216 10.1419 22.8216C9.95753 22.8216 9.50363 21.5268 9.50363 21.0176C9.50363 20.683 9.91497 20.9157 10.4114 21.5268Z" fill="#F7F7F7"/>
<path d="M17.5319 22.1233C17.3475 23.069 17.4326 23.3163 18.1276 24.0292C18.851 24.7567 19.2482 24.8731 19.617 24.4511C20.0142 24.0001 20.0567 23.3745 19.7305 22.9526C19.4893 22.6325 19.1631 22.4289 17.8581 21.7887C17.6737 21.7014 17.6028 21.7742 17.5319 22.1233ZM18.4822 22.5452C19.3191 22.9817 19.6879 23.7383 19.2482 24.102C18.922 24.393 18.0142 23.3745 18.0142 22.7053C18.0142 22.3416 18.0567 22.327 18.4822 22.5452Z" fill="#F7F7F7"/>
<path d="M25.9433 21.876C25.6454 22.0361 25.5461 22.2398 25.461 22.7781C25.4184 23.1564 25.3333 23.6219 25.2908 23.7965C25.234 24.0729 25.2766 24.1311 25.5603 24.1311C25.9716 24.1311 26.227 23.8547 26.6525 22.9963C26.9504 22.3998 26.9504 22.3416 26.7376 22.007C26.4823 21.5996 26.4397 21.5996 25.9433 21.876ZM26.2411 22.6617C26.2411 22.8945 26.1135 23.2291 25.9433 23.4182L25.6596 23.7674L25.7447 23.1273C25.7872 22.7781 25.8582 22.4289 25.9007 22.3562C26.0567 22.0943 26.2411 22.2543 26.2411 22.6617Z" fill="#F7F7F7"/>
<path d="M78.2836 34.097C78.0709 34.2134 77.8297 34.5189 77.7446 34.7663C77.5461 35.3628 77.5319 41.7497 77.7446 42.4917C77.9716 43.3501 78.4255 43.8011 79.0638 43.8157C80 43.8448 80 43.8302 80 38.9418V34.5917L79.6453 34.2425C79.2624 33.8351 78.8368 33.7915 78.2836 34.097Z" fill="#F7F7F7"/>
<path d="M75.9149 35.2028L75.5745 35.3337L75.6312 39.1165L75.6738 42.8992H76.0425C76.766 42.8992 76.9362 42.5936 77.0355 41.1969C77.1631 39.6402 77.0355 35.6538 76.8511 35.2901C76.7092 35.0137 76.4255 34.9846 75.9149 35.2028Z" fill="#F7F7F7"/>
<path d="M73.1916 50.2027C72.6242 51.0029 69.8866 54.2473 68.4115 55.8768L67.7874 56.5751L68.0427 57.0116C68.1703 57.2444 68.3264 57.4481 68.3689 57.4481C68.4257 57.4481 68.9788 56.8952 69.6171 56.2259L70.7803 55.0038L72.2413 56.5897L73.7164 58.1609L75.3335 56.5024L76.9505 54.8438L76.1278 53.9272C75.6881 53.418 75.1491 52.7342 74.9505 52.385C74.7519 52.0504 74.5391 51.774 74.4682 51.774C74.4115 51.774 73.8866 52.2105 73.3193 52.7488C72.7377 53.3016 72.3689 53.5926 72.4824 53.4326C73.1207 52.4869 73.9718 51.3957 74.142 51.2939C74.2413 51.2357 74.3264 51.0611 74.3264 50.9301C74.3264 50.6392 73.8157 49.7371 73.6455 49.7371C73.5746 49.7371 73.376 49.9554 73.1916 50.2027Z" fill="#F7F7F7"/>
<path d="M56.5249 62.6856C55.5746 62.8166 52.6951 62.8457 50.2271 62.7293C48.3689 62.642 48.2271 62.7147 48.2271 63.7332C48.2271 64.7225 48.5107 64.868 50.61 64.8971C51.6029 64.9116 52.0143 64.9407 51.532 64.9698L50.6384 65.028V65.6682C50.6384 66.352 50.7802 66.7884 51.3051 67.6614L51.6313 68.2142H55.2909C58.7802 68.2142 58.9646 68.1997 59.2625 67.9232C59.8866 67.3267 59.8724 66.1628 59.2483 65.6827C58.9221 65.4354 58.5675 65.3626 57.4753 65.3044C55.4469 65.2026 55.759 64.9553 57.9717 64.8971C60.1278 64.8534 60.0568 64.9116 59.9717 63.3985L59.9292 62.6129L58.6526 62.5983C57.9576 62.5838 56.993 62.6274 56.5249 62.6856Z" fill="#F7F7F7"/>
</svg>
