<svg width="41" height="28" viewBox="0 0 41 28" fill="none" xmlns="http://www.w3.org/2000/svg">
<path d="M19.0097 0.0419576C18.9298 0.0694825 18.8062 0.141047 18.7335 0.201602C18.6099 0.300692 18.6026 0.933766 18.5954 13.9035L18.5881 27.5008L18.7408 27.6935C19.0243 28.0348 19.584 28.1009 20.0202 27.8421C20.3982 27.6164 20.3909 27.6935 20.4273 24.352L20.4636 21.2196L20.7544 21.4123C21.3723 21.8307 22.7535 22.4583 23.6331 22.7225C24.4401 22.9592 25.2179 23.0968 26.2502 23.1739C29.2016 23.3886 31.9567 22.7445 34.2321 21.3077C36.2385 20.0471 37.2635 18.9186 37.9468 17.234C38.2957 16.3587 38.3466 16.0395 38.3466 14.6357C38.3394 13.4136 38.3321 13.3145 38.1431 12.786C37.5324 11.0464 36.6964 9.86286 35.1117 8.53065C34.1812 7.73793 32.3929 6.81309 30.9535 6.3782C29.2525 5.86624 27.2388 5.70109 25.4723 5.9323C24.0693 6.11947 23.4078 6.30113 22.2083 6.83511C21.8085 7.01127 21.3869 7.19844 21.2778 7.24799C21.1615 7.30304 20.9216 7.42415 20.7471 7.52324L20.4273 7.7049V4.07161V0.443822L20.2528 0.284177C19.9911 0.0474626 19.3805 -0.0681422 19.0097 0.0419576ZM28.809 7.7049C30.2411 7.9196 31.3824 8.34899 32.7491 9.17473C33.5415 9.65367 33.6796 9.75276 34.2175 10.2867C34.9881 11.0519 35.4388 11.7125 35.7878 12.6264C36.1367 13.5182 36.2021 13.8209 36.253 14.6907C36.2821 15.3128 36.2675 15.522 36.1367 15.9954C35.7587 17.3827 34.9445 18.5222 33.6578 19.4691C32.3275 20.4545 30.8881 21.027 28.9253 21.3408C27.2534 21.6105 25.9448 21.5279 24.3528 21.038C22.8335 20.5701 21.8012 19.9535 20.769 18.88L20.4273 18.5332V16.9478V15.3568L20.6745 15.3899C21.256 15.4614 21.8812 15.2798 21.8812 15.0431C21.8812 14.999 21.7867 14.8834 21.6704 14.7953C21.4741 14.6467 21.4159 14.6357 20.9434 14.6357H20.4273V12.3621L20.4346 10.0886L21.067 9.61513C21.6558 9.18024 22.6445 8.62423 23.4078 8.29394C24.52 7.82051 26.3083 7.51773 27.6604 7.57829C27.9003 7.5893 28.4165 7.64435 28.809 7.7049Z" fill="#F7F7F7"/>
<path d="M27.1152 8.30495L26.9335 8.40954L26.9117 11.2501C26.8899 14.0687 26.8899 14.0962 26.7372 14.2558C26.6209 14.3714 26.57 14.5201 26.5482 14.7788L26.5191 15.1366L26.8099 15.3458C27.3188 15.7147 27.8131 15.6981 28.3147 15.2963C28.5037 15.1476 28.5328 15.0871 28.5255 14.8173C28.5255 14.5311 28.5037 14.4981 28.2129 14.2944L27.9003 14.0742L27.9149 11.2611L27.9221 8.45358L27.7622 8.32697C27.5659 8.16732 27.3624 8.16182 27.1152 8.30495Z" fill="#F7F7F7"/>
<path d="M22.8481 9.35173C22.5282 9.45071 22.4264 9.81363 22.6736 9.97859C22.8553 10.1051 23.2261 10.1051 23.4078 9.98409C23.5968 9.85212 23.5968 9.54969 23.4078 9.40672C23.2551 9.29124 23.1025 9.27475 22.8481 9.35173Z" fill="#F7F7F7"/>
<path d="M31.397 9.35165C31.3316 9.37915 31.2371 9.47813 31.1862 9.5716C31.1062 9.72557 31.1062 9.75856 31.2371 9.89053C31.4988 10.149 31.9858 9.99501 31.9858 9.65409C31.9858 9.37915 31.6878 9.22518 31.397 9.35165Z" fill="#F7F7F7"/>
<path d="M31.7023 11.8336C30.3066 12.8631 28.8163 14.0081 28.7218 14.1402C28.6782 14.1953 28.6927 14.2944 28.7509 14.4045C28.8381 14.5586 28.889 14.5806 29.1362 14.5806C29.4342 14.5806 29.645 14.4815 30.1394 14.1127C30.3066 13.9916 30.9535 13.5182 31.5933 13.0613C33.8468 11.4373 33.8759 11.4153 33.8759 11.2611C33.8759 11.074 33.5633 10.8923 33.2434 10.8923C33.0108 10.8923 32.8654 10.9804 31.7023 11.8336Z" fill="#F7F7F7"/>
<path d="M32.9527 14.73C32.7637 14.7575 32.5674 14.9445 32.5674 15.0819C32.5674 15.1369 32.6546 15.2304 32.771 15.2964C32.96 15.4174 33.0109 15.4174 34.1522 15.3899C35.1481 15.3679 35.3589 15.3459 35.4825 15.2634C35.6642 15.1424 35.657 14.939 35.4752 14.8015C35.3444 14.7025 35.2426 14.6915 34.2249 14.697C33.6142 14.7025 33.0399 14.719 32.9527 14.73Z" fill="#F7F7F7"/>
<path d="M27.3333 15.8468C27.246 15.8908 27.217 16.111 27.2024 17.168C27.1879 18.0873 27.2024 18.4672 27.2678 18.5222C27.3914 18.6378 27.7476 18.6213 27.8421 18.4947C27.9221 18.3791 27.9512 16.034 27.8712 15.8798C27.8203 15.7807 27.5077 15.7642 27.3333 15.8468Z" fill="#F7F7F7"/>
<path d="M22.8262 19.3706C22.7463 19.4311 22.6808 19.5301 22.6808 19.585C22.6808 19.7005 23.0298 19.9205 23.2043 19.9205C23.3787 19.9205 23.5532 19.7335 23.5532 19.5411C23.5532 19.4036 23.5096 19.3541 23.3642 19.3156C23.0952 19.2386 22.9862 19.2496 22.8262 19.3706Z" fill="#F7F7F7"/>
<path d="M31.2734 19.3807C31.2225 19.4193 31.1862 19.5405 31.1862 19.6561C31.1862 19.8268 31.2225 19.8819 31.3606 19.926C31.6078 20.0141 31.8695 19.948 31.9713 19.7828C32.0876 19.59 32.0803 19.5515 31.9131 19.4248C31.7532 19.3036 31.4115 19.2761 31.2734 19.3807Z" fill="#F7F7F7"/>
<path d="M27.1879 20.0856C26.7736 20.3994 26.9989 21.0215 27.5296 21.0215C27.7404 21.0215 27.8422 20.8673 27.8422 20.5425C27.8422 20.1131 27.486 19.8599 27.1879 20.0856Z" fill="#F7F7F7"/>
<path d="M15.7021 0.493353C13.4195 0.647492 11.2096 1.03284 9.41402 1.58334C7.01508 2.32651 5.03051 3.37797 3.35125 4.80926C2.52253 5.5139 2.0282 6.05339 1.57749 6.74151C1.18494 7.34156 1.14859 7.41863 0.872353 8.11226C0.61792 8.75634 0.588842 9.19123 0.785119 9.43345L0.923239 9.5986L0.625189 9.71421C-0.203534 10.0335 -0.210804 11.1015 0.61792 11.4152C0.777849 11.4758 0.923239 11.5309 0.937778 11.5364C0.945048 11.5419 0.865083 11.641 0.741501 11.7566C0.123594 12.3511 0.298062 13.1879 1.12679 13.6723L1.41757 13.8374L1.2431 14.1017C1.06863 14.3769 0.959587 14.9935 1.03955 15.2522C1.11225 15.4669 1.41757 15.6816 1.65746 15.6816H1.87554L1.94097 16.2156C1.98459 16.5129 1.99913 16.7716 1.98459 16.7936C1.97005 16.8211 1.78104 16.8377 1.57023 16.8377C1.01047 16.8377 0.799658 16.9753 0.799658 17.3386C0.799658 17.6249 1.14132 18.2359 1.32306 18.28C1.38122 18.2965 1.34487 18.3625 1.22129 18.4947C0.9087 18.8084 0.530686 19.436 0.436182 19.7883C0.167211 20.8178 1.34487 22.0124 2.75515 22.1555C3.08228 22.1885 3.09682 22.1995 3.28583 22.4968C3.52572 22.8821 4.5798 23.7519 5.40852 24.2419C6.70977 25.0126 8.65799 25.8273 10.2718 26.2732C11.1514 26.5209 12.4309 26.7742 13.4995 26.9118C14.2555 27.0109 16.6254 27.187 17.1997 27.187H17.4468V26.7466V26.3062H16.669C13.5068 26.3062 9.97377 25.464 6.97874 24.0052C5.92466 23.4877 5.28494 23.0583 4.6743 22.4472C4.59434 22.3702 5.14682 22.3647 10.3082 22.3812C13.4559 22.3922 16.3491 22.4032 16.749 22.4142L17.4614 22.4307L17.4177 22.15C17.3959 22.0013 17.3741 21.7977 17.3741 21.7041V21.5334L10.2355 21.5224C2.21721 21.5114 2.83512 21.5444 2.18086 21.0985C1.45391 20.6031 1.41757 19.8819 2.08636 19.5351L2.35533 19.3975L7.51668 19.3534C10.3591 19.3314 13.7539 19.3204 15.0697 19.3314L17.4468 19.3479V18.3956V17.4487L17.1779 17.3937C16.5672 17.2615 15.9202 17.3716 15.7603 17.6304C15.6658 17.7955 15.5931 17.812 15.5277 17.6909C15.5059 17.6414 15.3169 17.5423 15.106 17.4707C14.4009 17.223 13.5213 17.3331 13.1651 17.713C13.0779 17.8065 12.9761 17.8836 12.9397 17.8836C12.8089 17.8836 11.0787 17.1129 10.7589 16.9147C10.061 16.4743 9.15232 16.2706 7.90923 16.2651C7.31313 16.2596 7.05143 16.2376 7.05143 16.1991C7.05143 16.1055 8.78884 16.0449 9.93742 16.0945C11.2387 16.1495 11.3404 16.1991 12.3073 17.2836C12.4527 17.4487 12.649 17.6414 12.7435 17.7075L12.9107 17.8286L13.2741 17.4873C13.8048 16.9863 13.9793 16.9312 14.8661 16.9753C15.6367 17.0193 15.7167 17.0193 16.7708 16.9918L17.4468 16.9753V16.7C17.4468 16.5459 17.425 16.3642 17.3959 16.2927C17.3523 16.1716 17.3232 16.1661 16.967 16.1936C16.749 16.2101 16.5018 16.2651 16.4146 16.3092C16.211 16.4193 15.833 16.4193 15.564 16.3147C15.4477 16.2706 15.1133 16.1716 14.8225 16.0945C14.5245 16.0119 14.3864 15.9624 14.5027 15.9789C14.6263 15.9954 15.3314 16.0284 16.0874 16.0505L17.4468 16.0835V15.7642V15.4449L17.1779 15.4779C16.7998 15.522 8.20001 15.5275 5.3431 15.4889C4.06367 15.4669 2.93689 15.4284 2.83512 15.4009C2.73335 15.3733 2.50799 15.2137 2.33352 15.0485C2.15905 14.8834 1.98459 14.7458 1.94824 14.7458C1.90462 14.7458 2.18086 14.3164 2.3626 14.0962C2.36987 14.0907 2.78423 14.2283 3.27856 14.41C4.17271 14.7293 5.45941 15.0761 5.75019 15.0761C6.01189 15.0761 8.25817 14.476 9.18867 14.1622L10.0683 13.8595L10.8679 14.0521C11.3114 14.1567 12.0747 14.3329 12.5763 14.4375C13.0779 14.5421 13.8121 14.7072 14.2192 14.8008C14.917 14.9715 14.9607 14.977 15.1351 14.8889C15.3314 14.7898 16.2837 13.8154 16.4872 13.5016C16.6254 13.298 16.7271 13.2704 16.8653 13.397C16.9162 13.4411 16.9961 13.4796 17.047 13.4796C17.0979 13.4796 17.2142 13.5402 17.3087 13.6117L17.4832 13.7439L17.4614 12.6814L17.4396 11.6189L17.1706 11.5914C16.6544 11.5253 6.65888 11.5419 6.6298 11.6024C6.57891 11.7235 5.82289 11.663 5.00143 11.4703C3.35852 11.0905 3.1259 11.0299 3.1259 10.9969C3.1259 10.9308 7.78565 10.8868 12.6271 10.9033L17.4396 10.9198L17.425 10.5234L17.4105 10.1216H10.9406C3.86012 10.1216 4.0564 10.1271 3.07501 9.79128C1.8392 9.36739 1.66473 9.03709 2.15179 8.04069C2.74788 6.8351 3.45303 5.98733 4.68157 5.01845C6.50622 3.57064 8.86154 2.5302 11.7621 1.88611C13.1724 1.57784 15.4404 1.3136 16.7199 1.3136H17.4468V0.906227C17.4468 0.630977 17.4177 0.493353 17.3596 0.476838C17.2069 0.432798 16.4436 0.443808 15.7021 0.493353ZM2.06455 10.3638L2.63157 10.5455L2.28264 10.5895C2.08636 10.6115 1.81012 10.6721 1.65746 10.7326C1.31579 10.8648 1.19948 10.8648 1.01774 10.7271C0.836005 10.5895 0.894161 10.4794 1.22856 10.3143C1.37395 10.2427 1.49026 10.1821 1.49753 10.1821C1.49753 10.1766 1.75923 10.2592 2.06455 10.3638ZM16.2255 12.7475C15.3605 13.7989 14.8734 14.3604 14.808 14.3604C14.7716 14.3604 13.9502 14.1732 12.9906 13.9475C12.031 13.7218 11.195 13.5347 11.1296 13.5292C11.0642 13.5292 11.1587 13.4961 11.3404 13.4576C11.5222 13.4191 11.7984 13.342 11.9583 13.2869C12.5108 13.1053 14.5027 12.5988 14.6699 12.5988C14.7571 12.5988 14.8516 12.5603 14.8734 12.5162C14.9098 12.4502 15.0479 12.4337 15.5858 12.4447C15.9857 12.4502 16.3055 12.4282 16.3927 12.3896C16.4727 12.3566 16.5454 12.3236 16.5599 12.3236C16.5672 12.3236 16.4218 12.5162 16.2255 12.7475ZM12.3582 12.5988C12.0165 12.6924 11.4931 12.8355 11.195 12.9291C10.897 13.0172 10.2718 13.1989 9.81384 13.3365C9.35586 13.4686 8.26544 13.8044 7.3931 14.0852L5.80835 14.5916L5.3431 14.4815C4.72519 14.3274 2.15179 13.397 1.78104 13.1989C1.61384 13.1108 1.42483 12.9622 1.35214 12.8686C1.22856 12.7089 1.22856 12.6924 1.3376 12.6098C1.44664 12.5273 1.98459 12.5162 7.07324 12.4887C10.1628 12.4722 12.7507 12.4557 12.8307 12.4502C12.9107 12.4392 12.6998 12.5107 12.3582 12.5988ZM5.69203 16.144C5.91739 16.2266 5.96101 16.2706 5.96101 16.4138V16.5844L5.75746 16.4358C5.64115 16.3532 5.4376 16.2596 5.29948 16.2321C4.96508 16.1606 4.39806 16.2211 4.2454 16.3477C4.11455 16.4578 3.82377 16.4743 3.31491 16.4083C3.08955 16.3752 3.00959 16.3367 2.93689 16.2046L2.84966 16.0394H4.13636C5.23406 16.0394 5.45214 16.056 5.69203 16.144ZM12.9833 16.3147C13.2378 16.3422 13.2814 16.3697 13.2523 16.4578C13.2014 16.6009 13.027 16.5899 12.6998 16.4248C12.4091 16.2706 12.3582 16.2101 12.5617 16.2541C12.6271 16.2651 12.8234 16.2927 12.9833 16.3147ZM8.31633 16.9478L8.81792 17.0689L8.35267 17.1955C8.09824 17.2615 7.53122 17.4322 7.08778 17.5753C6.65161 17.7185 6.14274 17.8671 5.96101 17.9056C5.77927 17.9497 5.56845 17.9992 5.48849 18.0212C5.35037 18.0598 5.35037 18.0598 5.47395 17.9827C5.67023 17.8726 5.61207 17.6194 5.35764 17.4762C5.20498 17.3937 5.02324 17.3551 4.63069 17.3441C4.14363 17.3276 4.07093 17.3386 3.48937 17.5533C2.83512 17.801 2.30445 17.8561 1.96278 17.7185C1.81739 17.6579 1.81012 17.6469 1.92643 17.5533C2.21721 17.3111 3.54026 17.0469 4.50711 17.0413C5.1032 17.0358 5.56118 17.2065 5.77927 17.5148C5.85923 17.6249 5.96101 17.7185 6.00462 17.7185C6.15728 17.7185 6.65888 17.3386 6.86969 17.0579L7.08778 16.7771L7.45125 16.8046C7.6548 16.8156 8.04008 16.8817 8.31633 16.9478ZM9.83565 18.1534C9.95923 18.2469 8.69434 18.2745 8.22182 18.1919C7.96739 18.1479 7.75657 18.1038 7.74203 18.0928C7.7275 18.0818 8.1782 18.0818 8.74523 18.0928C9.31225 18.1038 9.80657 18.1313 9.83565 18.1534Z" fill="#F7F7F7"/>
<path d="M12.8453 2.54673C12.8234 2.58526 12.7871 2.75592 12.758 2.92107C12.7144 3.16879 12.7362 3.26238 12.8598 3.45505C12.9979 3.65323 13.0488 3.68076 13.2596 3.68076C13.4486 3.68076 13.5577 3.63672 13.6958 3.5101C13.9284 3.30091 13.9357 3.14677 13.7176 2.9596C13.4704 2.7394 12.8889 2.46415 12.8453 2.54673ZM13.3541 2.90455C13.674 3.05869 13.7249 3.21834 13.4995 3.3945C13.1942 3.6202 12.9398 3.43303 12.9398 2.98713C12.9398 2.77243 13.0197 2.75592 13.3541 2.90455Z" fill="#F7F7F7"/>
<path d="M15.753 2.66216C15.6077 2.76129 15.4841 2.86593 15.4841 2.89346C15.4841 2.91549 15.5931 2.98158 15.7167 3.03665C15.9493 3.13578 15.9566 3.13578 16.0802 3.02013C16.2328 2.87694 16.2474 2.70071 16.1165 2.56853C16.0293 2.49143 16.0002 2.49694 15.753 2.66216Z" fill="#F7F7F7"/>
<path d="M26.352 3.14129C26.083 3.30093 25.9594 3.54866 25.9013 4.0386L25.8576 4.45148H25.4433C24.8254 4.45148 24.6945 4.55057 24.6582 5.04602C24.6291 5.43136 24.6291 5.43687 24.8254 5.4754C24.9344 5.49742 25.5814 5.48091 26.2647 5.44788C26.9553 5.40934 27.9004 5.37631 28.3729 5.37081C29.0998 5.3598 29.2307 5.37081 29.2598 5.44788C29.2888 5.51394 29.4342 5.54697 29.8268 5.57449C30.1103 5.59101 30.4374 5.62404 30.5537 5.64055L30.75 5.67358V5.14511V4.61663H29.5142C28.7364 4.61663 28.2784 4.59461 28.2784 4.56158C28.2784 4.52855 28.5401 4.50653 28.9181 4.50653C29.2743 4.50653 29.8123 4.49001 30.1176 4.4735L30.6773 4.43496V3.98906C30.6773 3.52113 30.5465 3.25139 30.263 3.14129C30.1903 3.11376 29.3252 3.07523 28.3365 3.05871C26.5846 3.02568 26.541 3.02568 26.352 3.14129Z" fill="#F7F7F7"/>
<path d="M10.6934 3.93951C10.4681 4.17072 10.25 4.57809 10.25 4.76526C10.25 4.88087 10.7588 4.79829 10.9624 4.64966C11.195 4.479 11.2604 3.98355 11.0714 3.80739L10.9406 3.69179L10.6934 3.93951ZM10.9769 4.19825C10.9769 4.35239 10.7225 4.61663 10.5698 4.61663C10.4899 4.61663 10.4753 4.57809 10.5117 4.46249C10.628 4.12118 10.9769 3.91749 10.9769 4.19825Z" fill="#F7F7F7"/>
<path d="M16.7489 4.08899C16.6908 4.19897 16.8798 4.5344 17.1051 4.74335C17.2505 4.87532 17.2796 4.88082 17.4032 4.80933C17.5776 4.71036 17.5122 4.60588 17.076 4.23746C16.8507 4.045 16.7853 4.01751 16.7489 4.08899Z" fill="#F7F7F7"/>
<path d="M6.90601 5.00747C6.63704 5.29373 6.50619 5.61302 6.63704 5.67358C6.81151 5.75615 6.94236 5.71211 7.13864 5.50292C7.3131 5.31025 7.32037 5.26621 7.25495 5.035C7.2186 4.89738 7.17498 4.78177 7.15318 4.78177C7.13864 4.78177 7.02959 4.88637 6.90601 5.00747Z" fill="#F7F7F7"/>
<path d="M12.1982 5.64053C11.9583 5.99285 11.9365 6.25709 12.1473 6.45527C12.3363 6.63693 12.598 6.64244 12.8307 6.46077C13.0924 6.2681 13.0851 5.84972 12.8234 5.613C12.4817 5.30472 12.4163 5.31023 12.1982 5.64053ZM12.7071 5.72861C12.8161 5.81118 12.8234 6.12497 12.7216 6.2736C12.6198 6.41123 12.4672 6.40572 12.3291 6.25709C12.0383 5.9433 12.38 5.48088 12.7071 5.72861Z" fill="#F7F7F7"/>
<path d="M9.02877 5.71833C8.76707 5.83931 8.53445 6.15274 8.59987 6.29571C8.63622 6.36169 8.72345 6.37819 8.94881 6.36719C9.31955 6.34519 9.51583 6.18023 9.57398 5.83931C9.61033 5.62485 9.60306 5.60836 9.44313 5.60836C9.34863 5.60836 9.15962 5.65785 9.02877 5.71833ZM9.30501 5.91079C9.30501 6.02077 8.96335 6.28471 8.87611 6.24622C8.80342 6.20772 8.8543 5.99877 8.96335 5.89429C9.05785 5.80082 9.30501 5.81181 9.30501 5.91079Z" fill="#F7F7F7"/>
<path d="M14.7862 5.80018C14.6626 6.17452 15.0406 6.73052 15.3968 6.69749C15.5495 6.68648 15.6003 6.64795 15.6149 6.52133C15.6512 6.27361 15.5713 6.11947 15.295 5.88275C14.9897 5.62952 14.8516 5.6075 14.7862 5.80018ZM15.3386 6.16351C15.3823 6.21856 15.4113 6.31214 15.4113 6.3782C15.4113 6.46628 15.375 6.49381 15.2514 6.47729C15.1133 6.46628 15.0769 6.42224 15.0624 6.22957C15.0406 6.03139 15.0624 5.99836 15.1569 6.02588C15.2151 6.0479 15.3023 6.10846 15.3386 6.16351Z" fill="#F7F7F7"/>
<path d="M33.8614 6.83512C33.6723 6.9287 33.5124 7.02779 33.5124 7.04981C33.5124 7.07183 33.7305 7.22597 34.0067 7.39663C35.3443 8.2499 36.8346 9.52706 37.6706 10.5345C37.9759 10.9088 38.0413 10.9253 38.4193 10.7767C38.6011 10.7051 38.7465 10.617 38.7465 10.5895C38.7465 10.4684 37.8596 9.37292 37.4598 9.00409C36.5729 8.17283 34.5011 6.65346 34.2612 6.65346C34.2321 6.65346 34.0504 6.73603 33.8614 6.83512Z" fill="#F7F7F7"/>
<path d="M37.0382 7.51221C36.6529 7.77645 36.6238 7.80948 36.7183 7.90307C36.7765 7.95812 37.0236 8.18382 37.2781 8.40953C37.5252 8.63523 37.7288 8.84442 37.7288 8.87745C37.7288 8.91048 37.9032 8.80038 38.1141 8.62973C38.3176 8.45907 38.543 8.31044 38.6011 8.29392C38.7102 8.2664 38.6811 8.23887 37.8015 7.5012L37.4671 7.22045L37.0382 7.51221Z" fill="#F7F7F7"/>
<path d="M16.211 7.45248C16.211 7.58445 16.4437 7.99685 16.5745 8.10683C16.6763 8.18381 16.7344 8.19481 16.8508 8.14532C16.9307 8.11233 17.0688 8.08484 17.1488 8.08484C17.5123 8.08484 17.1052 7.63943 16.5891 7.47447C16.2038 7.348 16.211 7.348 16.211 7.45248Z" fill="#F7F7F7"/>
<path d="M4.71791 7.64983C4.66702 7.7269 4.65248 7.86452 4.68883 8.02417C4.71791 8.16179 4.74699 8.37649 4.75426 8.49759C4.76153 8.76183 4.81968 8.80037 5.20497 8.80037C5.95372 8.80037 5.91011 8.13427 5.13954 7.71038L4.80514 7.52872L4.71791 7.64983ZM5.33582 8.14528C5.63387 8.40952 5.56844 8.63522 5.1977 8.63522C5.10319 8.63522 4.87057 8.14528 4.87057 7.9526C4.87057 7.82599 5.08138 7.91407 5.33582 8.14528Z" fill="#F7F7F7"/>
<path d="M8.98504 8.37101C8.89054 8.72883 8.93415 8.82242 9.29036 9.09216C9.6611 9.36741 9.86465 9.41145 10.0537 9.2518C10.2572 9.08115 10.279 8.84443 10.1118 8.68479C9.98823 8.56368 9.82103 8.48661 9.15224 8.24439C9.05774 8.21136 9.02139 8.23889 8.98504 8.37101ZM9.4721 8.53065C9.901 8.6958 10.09 8.98206 9.86465 9.11968C9.69745 9.22978 9.2322 8.84443 9.2322 8.59121C9.2322 8.45358 9.25401 8.44808 9.4721 8.53065Z" fill="#F7F7F7"/>
<path d="M13.2959 8.27742C13.1433 8.33797 13.0924 8.41504 13.0488 8.61873C13.0269 8.76186 12.9833 8.93802 12.9615 9.00408C12.9324 9.10867 12.9542 9.13069 13.0996 9.13069C13.3105 9.13069 13.4413 9.0261 13.6594 8.7013C13.8121 8.4756 13.8121 8.45358 13.703 8.32696C13.5722 8.17282 13.5503 8.17282 13.2959 8.27742ZM13.4486 8.57469C13.4486 8.66277 13.3832 8.78938 13.2959 8.86095L13.1505 8.99307L13.1941 8.75085C13.216 8.61873 13.2523 8.48661 13.2741 8.45908C13.3541 8.35999 13.4486 8.42055 13.4486 8.57469Z" fill="#F7F7F7"/>
<path d="M40.1204 12.9016C40.0113 12.9456 39.8877 13.0612 39.8441 13.1548C39.7424 13.3805 39.7351 15.7972 39.8441 16.078C39.9604 16.4028 40.1931 16.5734 40.5202 16.5789C41 16.5899 41 16.5844 41 14.7347V13.0887L40.8182 12.9566C40.622 12.8025 40.4039 12.786 40.1204 12.9016Z" fill="#F7F7F7"/>
<path d="M38.9064 13.32L38.7319 13.3695L38.761 14.8008L38.7828 16.2321H38.9718C39.3425 16.2321 39.4298 16.1165 39.4807 15.588C39.5461 14.999 39.4807 13.4906 39.3862 13.353C39.3135 13.2484 39.1681 13.2374 38.9064 13.32Z" fill="#F7F7F7"/>
<path d="M37.5106 18.9956C37.2199 19.2984 35.8169 20.526 35.0608 21.1426L34.741 21.4068L34.8718 21.572C34.9372 21.66 35.0172 21.7371 35.039 21.7371C35.0681 21.7371 35.3516 21.5279 35.6787 21.2747L36.2748 20.8123L37.0236 21.4123L37.7796 22.0069L38.6083 21.3793L39.4371 20.7517L39.0154 20.4049C38.7901 20.2122 38.5138 19.9535 38.4121 19.8214C38.3103 19.6948 38.2013 19.5902 38.1649 19.5902C38.1358 19.5902 37.8669 19.7553 37.5761 19.959C37.278 20.1682 37.089 20.2783 37.1472 20.2177C37.4743 19.8599 37.9105 19.447 37.9977 19.4085C38.0486 19.3865 38.0922 19.3204 38.0922 19.2709C38.0922 19.1608 37.8305 18.8195 37.7433 18.8195C37.7069 18.8195 37.6052 18.902 37.5106 18.9956Z" fill="#F7F7F7"/>
<path d="M28.969 23.7189C28.4819 23.7685 27.0062 23.7795 25.7413 23.7354C24.789 23.7024 24.7163 23.7299 24.7163 24.1153C24.7163 24.4896 24.8617 24.5447 25.9376 24.5557C26.4465 24.5612 26.6573 24.5722 26.4101 24.5832L25.9522 24.6052V24.8474C25.9522 25.1062 26.0249 25.2713 26.2938 25.6016L26.461 25.8108H28.3366C30.1249 25.8108 30.2194 25.8053 30.372 25.7007C30.6919 25.475 30.6846 25.0346 30.3647 24.8529C30.1975 24.7594 30.0158 24.7318 29.4561 24.7098C28.4165 24.6713 28.5764 24.5777 29.7105 24.5557C30.8155 24.5392 30.7791 24.5612 30.7355 23.9887L30.7137 23.6914L30.0594 23.6859C29.7032 23.6804 29.2089 23.6969 28.969 23.7189Z" fill="#F7F7F7"/>
</svg>
